<?xml version="1.0" encoding="UTF-8"?>
<svg width="118.53mm" height="94.827mm" version="1.1" viewBox="0 0 118.53 94.827" xmlns="http://www.w3.org/2000/svg" xmlns:cc="http://creativecommons.org/ns#" xmlns:dc="http://purl.org/dc/elements/1.1/" xmlns:rdf="http://www.w3.org/1999/02/22-rdf-syntax-ns#">
 <metadata>
  <rdf:RDF>
   <cc:Work rdf:about="">
    <dc:format>image/svg+xml</dc:format>
    <dc:type rdf:resource="http://purl.org/dc/dcmitype/StillImage"/>
    <dc:title/>
   </cc:Work>
  </rdf:RDF>
 </metadata>
 <g transform="translate(-51.106 -58.418)">
  <path d="m98.34 106.88c1.1576 1.1576 3.0337 1.1576 4.1913 0l2.0947-2.0947c1.1575-1.1576 1.1575-3.0337 0-4.1913l-6.6157-6.6138 6.6138-6.6156c1.1576-1.1576 1.1576-3.0337 0-4.1913l-2.0947-2.0947c-1.1576-1.1575-3.0337-1.1575-4.1913 0l-10.805 10.805c-1.1576 1.1576-1.1576 3.0337 0 4.1913zm17.782-2.0928 2.0947 2.0947c1.1576 1.1576 3.0337 1.1576 4.1913 0l10.805-10.805c1.1576-1.1576 1.1576-3.0337 0-4.1913l-10.805-10.805c-1.1575-1.1576-3.0337-1.1576-4.1913 0l-2.0947 2.0947c-1.1576 1.1575-1.1576 3.0337 0 4.1913l6.6138 6.6138-6.6138 6.6156c-1.1576 1.1576-1.1576 3.0337 0 4.1913zm50.554 30.68h-44.906c-0.13705 3.669-2.7244 5.9267-6.0637 5.9267h-11.261c-3.4615 0-6.1156-3.2356-6.0693-5.9267h-44.307c-1.6298 0-2.9633 1.3335-2.9633 2.9633v2.9633c0 6.5193 5.334 11.853 11.853 11.853h94.827c6.5193 0 11.853-5.334 11.853-11.853v-2.9633c0-1.6298-1.3335-2.9633-2.9633-2.9633zm-8.89-68.157c0-4.8895-4.0005-8.89-8.89-8.89h-77.047c-4.8895 0-8.89 4.0005-8.89 8.89v62.23h94.827zm-11.853 50.377h-71.12v-47.413h71.12z" stroke-width=".26458"/>
 </g>
</svg>
