<?xml version="1.0" encoding="UTF-8"?>
<svg width="256" height="256" version="1.1" viewBox="0 0 256 256" xmlns="http://www.w3.org/2000/svg">
 <path d="m84.745 111.96c0 2.434 0.2632 4.407 0.7237 5.855 0.5263 1.447 1.1842 3.026 2.1053 4.737 0.3289 0.526 0.4605 1.052 0.4605 1.513 0 0.658-0.3947 1.316-1.25 1.973l-4.1447 2.764c-0.5921 0.394-1.1842 0.592-1.7105 0.592-0.6579 0-1.3158-0.329-1.9737-0.921-0.9211-0.987-1.7106-2.04-2.3684-3.092-0.6579-1.119-1.3158-2.369-2.0395-3.882-5.1316 6.053-11.579 9.079-19.342 9.079-5.5263 0-9.9342-1.579-13.158-4.737s-4.8684-7.368-4.8684-12.631c0-5.593 1.9736-10.132 5.9868-13.553s9.3421-5.1316 16.118-5.1316c2.2369 0 4.5395 0.1974 6.9737 0.5263 2.4342 0.329 4.9342 0.8553 7.5658 1.4474v-4.8026c0-5-1.0526-8.4869-3.0921-10.526-2.1053-2.0395-5.6579-3.0264-10.724-3.0264-2.3026 0-4.6711 0.2632-7.1053 0.8553s-4.8026 1.3158-7.1052 2.2368c-1.0527 0.4606-1.8421 0.7237-2.3027 0.8553-0.4605 0.1316-0.7894 0.1974-1.0526 0.1974-0.921 0-1.3816-0.6579-1.3816-2.0395v-3.2237c0-1.0526 0.1316-1.8421 0.4606-2.3026 0.3289-0.4605 0.921-0.9211 1.8421-1.3816 2.3026-1.1842 5.0658-2.171 8.2894-2.9605 3.2237-0.8553 6.6448-1.25 10.263-1.25 7.8289 0 13.553 1.7763 17.237 5.3289 3.6185 3.5527 5.4606 8.9474 5.4606 16.184v21.316h0.1315zm-26.71 10c2.1711 0 4.4079-0.395 6.7763-1.185 2.3685-0.789 4.4737-2.237 6.25-4.21 1.0527-1.25 1.8421-2.632 2.2369-4.211 0.3947-1.579 0.6579-3.487 0.6579-5.723v-2.764c-1.9079-0.46-3.9474-0.855-6.0527-1.118-2.1052-0.263-4.1447-0.395-6.1842-0.395-4.4079 0-7.6316 0.856-9.8026 2.632-2.1711 1.776-3.2237 4.276-3.2237 7.566 0 3.092 0.7895 5.394 2.4342 6.973 1.579 1.645 3.8816 2.435 6.9079 2.435zm52.829 7.105c-1.184 0-1.974-0.198-2.5-0.658-0.526-0.395-0.987-1.316-1.381-2.566l-15.461-50.855c-0.3948-1.3157-0.5921-2.171-0.5921-2.6315 0-1.0527 0.5263-1.6448 1.5789-1.6448h6.4474c1.2497 0 2.1057 0.1974 2.5657 0.6579 0.526 0.3948 0.921 1.3158 1.316 2.5658l11.052 43.553 10.264-43.553c0.329-1.3158 0.723-2.171 1.25-2.5658 0.526-0.3947 1.447-0.6579 2.631-0.6579h5.263c1.25 0 2.106 0.1974 2.632 0.6579 0.526 0.3948 0.987 1.3158 1.25 2.5658l10.395 44.079 11.381-44.079c0.395-1.3158 0.856-2.171 1.316-2.5658 0.526-0.3947 1.382-0.6579 2.566-0.6579h6.118c1.053 0 1.645 0.5263 1.645 1.6448 0 0.3289-0.066 0.6579-0.132 1.0526-0.065 0.3947-0.197 0.921-0.46 1.6447l-15.855 50.855c-0.395 1.316-0.856 2.171-1.382 2.566-0.526 0.394-1.382 0.658-2.5 0.658h-5.658c-1.25 0-2.105-0.198-2.631-0.658-0.527-0.461-0.987-1.316-1.25-2.632l-10.198-42.434-10.131 42.368c-0.329 1.316-0.724 2.171-1.25 2.632-0.527 0.46-1.448 0.658-2.632 0.658h-5.658zm84.54 1.776c-3.421 0-6.842-0.395-10.132-1.184-3.289-0.79-5.855-1.645-7.566-2.632-1.052-0.592-1.776-1.25-2.039-1.842s-0.395-1.25-0.395-1.842v-3.355c0-1.382 0.526-2.04 1.513-2.04 0.395 0 0.79 0.066 1.184 0.198 0.395 0.131 0.987 0.394 1.645 0.658 2.237 0.986 4.671 1.776 7.237 2.302 2.632 0.527 5.197 0.79 7.829 0.79 4.145 0 7.368-0.724 9.605-2.171 2.237-1.448 3.421-3.553 3.421-6.25 0-1.842-0.592-3.356-1.776-4.606s-3.421-2.368-6.645-3.421l-9.539-2.96c-4.803-1.513-8.356-3.7502-10.527-6.7107-2.171-2.8947-3.289-6.1184-3.289-9.5395 0-2.7631 0.592-5.1973 1.776-7.3026s2.763-3.9474 4.737-5.3947c1.974-1.5132 4.211-2.6316 6.842-3.4211 2.632-0.7895 5.395-1.1184 8.29-1.1184 1.447 0 2.96 0.0658 4.408 0.2632 1.513 0.1973 2.894 0.4605 4.276 0.7236 1.316 0.329 2.566 0.6579 3.75 1.0527 1.184 0.3947 2.105 0.7894 2.763 1.1842 0.921 0.5263 1.579 1.0526 1.974 1.6447 0.394 0.5263 0.592 1.25 0.592 2.1711v3.0921c0 1.3816-0.526 2.1052-1.513 2.1052-0.527 0-1.382-0.2631-2.5-0.7894-3.75-1.7106-7.961-2.5658-12.632-2.5658-3.75 0-6.71 0.5921-8.75 1.8421-2.039 1.25-3.092 3.1579-3.092 5.8552 0 1.8422 0.658 3.4211 1.974 4.6711 1.315 1.25 3.75 2.5 7.237 3.6184l9.342 2.9605c4.736 1.5132 8.158 3.6181 10.197 6.3161 2.039 2.697 3.026 5.789 3.026 9.21 0 2.829-0.592 5.395-1.71 7.632-1.184 2.237-2.763 4.21-4.803 5.789-2.039 1.645-4.474 2.829-7.302 3.685-2.961 0.921-6.053 1.381-9.408 1.381z" fill="#252F3E"/>
 <path d="m207.84 162.82c-21.645 15.987-53.092 24.474-80.132 24.474-37.894 0-72.039-14.014-97.829-37.303-2.0394-1.842-0.1973-4.342 2.2369-2.895 27.895 16.184 62.303 25.987 97.895 25.987 24.013 0 50.395-5 74.671-15.263 3.618-1.645 6.71 2.368 3.158 5z" clip-rule="evenodd" fill="#F90" fill-rule="evenodd"/>
 <path d="m216.85 152.55c-2.763-3.553-18.289-1.711-25.329-0.856-2.105 0.264-2.434-1.579-0.526-2.96 12.368-8.684 32.697-6.184 35.066-3.29 2.368 2.961-0.658 23.29-12.237 33.027-1.777 1.513-3.487 0.723-2.698-1.25 2.632-6.513 8.487-21.185 5.724-24.671z" clip-rule="evenodd" fill="#F90" fill-rule="evenodd"/>
</svg>
