<?xml version="1.0" encoding="UTF-8" standalone="no"?>
<svg
   viewBox="0 0 512 384"
   version="1.1"
   id="svg567"
   sodipodi:docname="email.svg"
   width="512"
   height="384"
   inkscape:version="1.2.1 (9c6d41e410, 2022-07-14)"
   xmlns:inkscape="http://www.inkscape.org/namespaces/inkscape"
   xmlns:sodipodi="http://sodipodi.sourceforge.net/DTD/sodipodi-0.dtd"
   xmlns="http://www.w3.org/2000/svg"
   xmlns:svg="http://www.w3.org/2000/svg">
  <defs
     id="defs571" />
  <sodipodi:namedview
     id="namedview569"
     pagecolor="#ffffff"
     bordercolor="#666666"
     borderopacity="1.0"
     inkscape:showpageshadow="2"
     inkscape:pageopacity="0.0"
     inkscape:pagecheckerboard="0"
     inkscape:deskcolor="#d1d1d1"
     showgrid="false"
     inkscape:zoom="0.4609375"
     inkscape:cx="92.20339"
     inkscape:cy="190.91525"
     inkscape:window-width="1920"
     inkscape:window-height="1027"
     inkscape:window-x="760"
     inkscape:window-y="214"
     inkscape:window-maximized="1"
     inkscape:current-layer="svg567" />
  <!-- Font Awesome Free 5.15.4 by @fontawesome - https://fontawesome.com License - https://fontawesome.com/license/free (Icons: CC BY 4.0, Fonts: SIL OFL 1.1, Code: MIT License) -->
  <path
     d="m 502.3,126.8 c 3.9,-3.1 9.7,-0.2 9.7,4.7 V 336 c 0,26.5 -21.5,48 -48,48 H 48 C 21.5,384 0,362.5 0,336 V 131.6 c 0,-5 5.7,-7.8 9.7,-4.7 22.4,17.4 52.1,39.5 154.1,113.6 21.1,15.4 56.7,47.8 92.2,47.6 35.7,0.3 72,-32.8 92.3,-47.6 102,-74.1 131.6,-96.3 154,-113.7 z M 256,256 c 23.2,0.4 56.6,-29.2 73.4,-41.4 C 462.1,118.3 472.2,109.9 502.8,85.9 508.6,81.4 512,74.4 512,67 V 48 C 512,21.5 490.5,0 464,0 H 48 C 21.5,0 0,21.5 0,48 v 19 c 0,7.4 3.4,14.3 9.2,18.9 30.6,23.9 40.7,32.4 173.4,128.7 16.8,12.2 50.2,41.8 73.4,41.4 z"
     id="path565"
     style="fill:#ffffff" />
</svg>
