<?xml version="1.0" encoding="UTF-8" standalone="no"?>
<svg
   width="256"
   height="256"
   fill="none"
   viewBox="0 0 256 256"
   version="1.1"
   id="svg31"
   sodipodi:docname="PostgreSQL-Light.svg"
   inkscape:version="1.2.1 (9c6d41e410, 2022-07-14)"
   xmlns:inkscape="http://www.inkscape.org/namespaces/inkscape"
   xmlns:sodipodi="http://sodipodi.sourceforge.net/DTD/sodipodi-0.dtd"
   xmlns="http://www.w3.org/2000/svg"
   xmlns:svg="http://www.w3.org/2000/svg">
  <sodipodi:namedview
     id="namedview33"
     pagecolor="#ffffff"
     bordercolor="#666666"
     borderopacity="1.0"
     inkscape:showpageshadow="2"
     inkscape:pageopacity="0.0"
     inkscape:pagecheckerboard="0"
     inkscape:deskcolor="#d1d1d1"
     showgrid="false"
     inkscape:zoom="1.84375"
     inkscape:cx="-23.59322"
     inkscape:cy="73.220339"
     inkscape:window-width="1920"
     inkscape:window-height="1027"
     inkscape:window-x="760"
     inkscape:window-y="214"
     inkscape:window-maximized="1"
     inkscape:current-layer="svg31" />
  <g
     id="g496"
     transform="matrix(1.414844,0,0,1.413717,-53.243421,-52.940268)"
     style="stroke-width:0.707073">
    <path
       fill="#000000"
       d="m 171.474,169.034 c 1.146,-9.541 0.802,-10.933 7.903,-9.393 l 1.807,0.161 c 5.464,0.246 12.607,-0.879 16.875,-2.826 9.036,-4.191 14.393,-11.194 5.485,-9.352 -20.321,4.191 -21.797,-2.693 -21.797,-2.693 21.466,-31.851 30.445,-72.281 22.69,-82.174 -21.122,-27 -57.692,-14.2312 -58.303,-13.8937 l -0.197,0.0351 c -4.008,-0.8437 -8.438,-1.3359 -13.571,-1.4062 -9.196,-0.1406 -16.171,2.4117 -21.473,6.4266 0,0 -65.2289,-26.8735 -62.1985,33.7992 0.6469,12.909 18.4922,97.734 39.7969,72.07 7.7977,-9.379 15.3216,-17.304 15.3216,-17.304 3.726,2.482 8.205,3.748 12.895,3.291 l 0.365,-0.309 c -0.108,1.215 -0.058,2.439 0.148,3.642 -5.484,6.131 -3.867,7.207 -14.836,9.464 -11.0951,2.285 -4.5701,6.356 -0.323,7.425 5.161,1.294 17.1,3.122 25.172,-8.17 l -0.324,1.286 c 2.152,1.723 2.004,12.375 2.32,19.983 0.317,7.608 0.816,14.717 2.37,18.9 1.554,4.184 3.375,14.977 17.789,11.953 12.045,-2.58 21.256,-6.3 22.099,-40.851"
       id="path4"
       clip-path="url(#clipPath384)"
       style="stroke-width:0.499953" />
    <path
       stroke="#000000"
       stroke-width="10.6839"
       d="m 171.474,169.034 c 1.146,-9.541 0.802,-10.933 7.903,-9.393 l 1.807,0.161 c 5.464,0.246 12.607,-0.879 16.875,-2.826 9.036,-4.191 14.393,-11.194 5.485,-9.352 -20.321,4.191 -21.797,-2.693 -21.797,-2.693 21.466,-31.851 30.445,-72.281 22.69,-82.174 -21.122,-27 -57.692,-14.2312 -58.303,-13.8937 l -0.197,0.0351 c -4.008,-0.8437 -8.438,-1.3359 -13.571,-1.4062 -9.196,-0.1406 -16.171,2.4117 -21.473,6.4266 0,0 -65.2289,-26.8735 -62.1985,33.7992 0.6469,12.909 18.4922,97.734 39.7969,72.07 7.7977,-9.379 15.3216,-17.304 15.3216,-17.304 3.726,2.482 8.205,3.748 12.895,3.291 l 0.365,-0.309 c -0.108,1.215 -0.058,2.439 0.148,3.642 -5.484,6.131 -3.867,7.207 -14.836,9.464 -11.0951,2.285 -4.5701,6.356 -0.323,7.425 5.161,1.294 17.1,3.122 25.172,-8.17 l -0.324,1.286 c 2.152,1.723 2.004,12.375 2.32,19.983 0.317,7.608 0.816,14.717 2.37,18.9 1.554,4.184 3.375,14.977 17.789,11.953 12.045,-2.58 21.256,-6.3 22.099,-40.851"
       id="path6"
       clip-path="url(#clipPath378)" />
    <path
       fill="#336791"
       d="m 203.48,147.688 c -20.32,4.19 -21.796,-2.693 -21.796,-2.693 21.466,-31.852 30.445,-72.2816 22.696,-82.1746 -21.121,-27 -57.691,-14.2242 -58.303,-13.8938 l -0.197,0.0352 c -4.466,-0.8962 -9.007,-1.3694 -13.563,-1.4133 -9.197,-0.1406 -16.172,2.4117 -21.473,6.4266 0,0 -65.2362,-26.8735 -62.1987,33.7992 0.6469,12.9097 18.4922,97.7347 39.7969,72.0707 7.8469,-9.436 15.3708,-17.361 15.3708,-17.361 3.726,2.482 8.205,3.748 12.895,3.291 l 0.365,-0.309 c -0.107,1.215 -0.057,2.439 0.148,3.642 -5.484,6.131 -3.867,7.207 -14.836,9.464 -11.0951,2.285 -4.5701,6.356 -0.323,7.425 5.161,1.294 17.1,3.122 25.172,-8.17 l -0.324,1.286 c 2.152,1.723 3.656,11.201 3.403,19.793 -0.253,8.593 -0.422,14.485 1.266,19.097 1.687,4.613 3.375,14.977 17.789,11.953 12.045,-2.58 18.281,-9.281 19.16,-20.432 0.619,-7.932 2.011,-6.765 2.11,-13.852 l 1.125,-3.361 c 1.286,-10.758 0.21,-14.224 7.628,-12.607 l 1.807,0.162 c 5.464,0.246 12.615,-0.879 16.805,-2.827 9.035,-4.19 14.393,-11.194 5.485,-9.351 z"
       id="path8"
       clip-path="url(#clipPath372)"
       style="stroke-width:0.499953" />
    <path
       stroke="#ffffff"
       stroke-linecap="round"
       stroke-linejoin="round"
       stroke-width="3.55941"
       d="m 146.07,48.5961 c -2.25,0.7032 36.31,-14.0976 58.233,13.9079 7.735,9.8929 -1.23,50.323 -22.697,82.174 m -53.508,9.106 c -0.562,20.011 0.141,40.162 2.096,45 1.954,4.837 6.152,14.414 20.573,11.334 12.045,-2.58 16.432,-7.58 18.331,-18.612 l 4.45,-35.275 M 110.816,53.4688 c 0,0 -65.2785,-26.6906 -62.241,33.982 0.6469,12.9092 18.4922,97.7342 39.7969,72.0702 7.7765,-9.373 14.8081,-16.706 14.8081,-16.706"
       id="path10"
       clip-path="url(#clipPath366)"
       sodipodi:nodetypes="cccccccccccc" />
    <path
       stroke="#ffffff"
       stroke-linecap="round"
       stroke-linejoin="bevel"
       stroke-width="3.55941"
       d="m 181.613,144.664 c 0,0 1.407,6.891 21.797,2.686 8.909,-1.842 3.544,5.161 -5.484,9.352 -7.411,3.445 -24.033,4.324 -24.307,-0.422 -0.703,-12.27 8.747,-8.543 8.065,-11.616 -0.619,-2.77 -4.852,-5.484 -7.636,-12.262 -2.44,-5.907 -33.469,-51.2582 8.606,-44.5293 C 184.201,87.5563 171.685,47.7946 132.31,47.2181 92.9352,46.6415 94.1797,95.6282 94.1797,95.6282"
       id="path12"
       clip-path="url(#clipPath360)" />
    <path
       stroke="#ffffff"
       stroke-linejoin="round"
       stroke-width="3.55941"
       d="m 117.08,148.869 c -5.484,6.131 -3.867,7.207 -14.835,9.464 -11.0958,2.285 -4.5708,6.356 -0.324,7.425 5.161,1.294 17.1,3.122 25.172,-8.178 2.461,-3.445 -0.014,-8.929 -3.389,-10.321 -1.631,-0.675 -3.811,-1.519 -6.609,1.617 z"
       id="path14"
       clip-path="url(#clipPath354)" />
    <path
       stroke="#ffffff"
       stroke-linecap="round"
       stroke-linejoin="round"
       stroke-width="3.55941"
       d="m 116.722,148.763 c -0.563,-3.607 1.181,-7.889 3.044,-12.909 2.799,-7.523 9.254,-15.047 4.093,-38.9321 -3.847,-17.789 -29.6723,-3.7054 -29.6723,-1.2937 0,2.4117 1.1672,12.2348 -0.4219,23.6598 -2.0882,14.921 9.4922,27.535 22.8232,26.248"
       id="path16"
       clip-path="url(#clipPath348)" />
    <path
       fill="#ffffff"
       stroke="#ffffff"
       stroke-width="1.18788"
       d="m 110.577,95.2695 c -0.12,0.8227 1.511,3.0235 3.628,3.3188 2.116,0.2953 3.923,-1.4203 4.043,-2.25 0.119,-0.8297 -1.512,-1.7297 -3.628,-2.025 -2.117,-0.2953 -3.938,0.1406 -4.043,0.9562 z"
       id="path18"
       clip-path="url(#clipPath342)" />
    <path
       fill="#ffffff"
       stroke="#ffffff"
       stroke-width="0.59182"
       d="m 175.011,93.5891 c 0.112,0.8227 -1.512,3.0234 -3.628,3.3188 -2.117,0.2953 -3.938,-1.4204 -4.043,-2.25 -0.106,-0.8297 1.512,-1.7297 3.628,-2.025 2.116,-0.2954 3.937,0.1406 4.043,0.9562 z"
       id="path20"
       clip-path="url(#clipPath336)" />
    <path
       stroke="#ffffff"
       stroke-linecap="round"
       stroke-linejoin="round"
       stroke-width="3.55941"
       d="m 182.577,87.8867 c 0.351,6.4688 -1.393,10.8633 -1.618,17.7473 -0.323,9.998 4.768,21.445 -2.904,32.906"
       id="path22"
       clip-path="url(#clipPath330)" />
  </g>
  <defs
     id="defs29">
    <clipPath
       clipPathUnits="userSpaceOnUse"
       id="clipPath330">
      <g
         id="g334">
        <rect
           width="180"
           height="180"
           fill="#ffffff"
           id="rect332"
           x="38"
           y="38" />
      </g>
    </clipPath>
    <clipPath
       clipPathUnits="userSpaceOnUse"
       id="clipPath336">
      <g
         id="g340">
        <rect
           width="180"
           height="180"
           fill="#ffffff"
           id="rect338"
           x="38"
           y="38" />
      </g>
    </clipPath>
    <clipPath
       clipPathUnits="userSpaceOnUse"
       id="clipPath342">
      <g
         id="g346">
        <rect
           width="180"
           height="180"
           fill="#ffffff"
           id="rect344"
           x="38"
           y="38" />
      </g>
    </clipPath>
    <clipPath
       clipPathUnits="userSpaceOnUse"
       id="clipPath348">
      <g
         id="g352">
        <rect
           width="180"
           height="180"
           fill="#ffffff"
           id="rect350"
           x="38"
           y="38" />
      </g>
    </clipPath>
    <clipPath
       clipPathUnits="userSpaceOnUse"
       id="clipPath354">
      <g
         id="g358">
        <rect
           width="180"
           height="180"
           fill="#ffffff"
           id="rect356"
           x="38"
           y="38" />
      </g>
    </clipPath>
    <clipPath
       clipPathUnits="userSpaceOnUse"
       id="clipPath360">
      <g
         id="g364">
        <rect
           width="180"
           height="180"
           fill="#ffffff"
           id="rect362"
           x="38"
           y="38" />
      </g>
    </clipPath>
    <clipPath
       clipPathUnits="userSpaceOnUse"
       id="clipPath366">
      <g
         id="g370">
        <rect
           width="180"
           height="180"
           fill="#ffffff"
           id="rect368"
           x="38"
           y="38" />
      </g>
    </clipPath>
    <clipPath
       clipPathUnits="userSpaceOnUse"
       id="clipPath372">
      <g
         id="g376">
        <rect
           width="180"
           height="180"
           fill="#ffffff"
           id="rect374"
           x="38"
           y="38" />
      </g>
    </clipPath>
    <clipPath
       clipPathUnits="userSpaceOnUse"
       id="clipPath378">
      <g
         id="g382">
        <rect
           width="180"
           height="180"
           fill="#ffffff"
           id="rect380"
           x="38"
           y="38" />
      </g>
    </clipPath>
    <clipPath
       clipPathUnits="userSpaceOnUse"
       id="clipPath384">
      <g
         id="g388">
        <rect
           width="180"
           height="180"
           fill="#ffffff"
           id="rect386"
           x="38"
           y="38" />
      </g>
    </clipPath>
  </defs>
</svg>
