<?xml version="1.0" encoding="UTF-8"?>
<svg width="256" height="256" fill="none" version="1.1" viewBox="0 0 256 256" xmlns="http://www.w3.org/2000/svg">
 <g transform="matrix(1.4 0 0 1.4 -53 -53)" stroke-width=".71">
  <path d="m171 169c1.1-9.5 0.8-11 7.9-9.4l1.8 0.16c5.5 0.25 13-0.88 17-2.8 9-4.2 14-11 5.5-9.4-20 4.2-22-2.7-22-2.7 21-32 30-72 23-82-21-27-58-14-58-14l-0.2 0.035c-4-0.84-8.4-1.3-14-1.4-9.2-0.14-16 2.4-21 6.4 0 0-65-27-62 34 0.65 13 18 98 40 72 7.8-9.4 15-17 15-17 3.7 2.5 8.2 3.7 13 3.3l0.36-0.31c-0.11 1.2-0.058 2.4 0.15 3.6-5.5 6.1-3.9 7.2-15 9.5-11 2.3-4.6 6.4-0.32 7.4 5.2 1.3 17 3.1 25-8.2l-0.32 1.3c2.2 1.7 2 12 2.3 20 0.32 7.6 0.82 15 2.4 19 1.6 4.2 3.4 15 18 12 12-2.6 21-6.3 22-41" clip-path="url(#clipPath384)" fill="#000" stroke-width=".5"/>
  <path d="m171 169c1.1-9.5 0.8-11 7.9-9.4l1.8 0.16c5.5 0.25 13-0.88 17-2.8 9-4.2 14-11 5.5-9.4-20 4.2-22-2.7-22-2.7 21-32 30-72 23-82-21-27-58-14-58-14l-0.2 0.035c-4-0.84-8.4-1.3-14-1.4-9.2-0.14-16 2.4-21 6.4 0 0-65-27-62 34 0.65 13 18 98 40 72 7.8-9.4 15-17 15-17 3.7 2.5 8.2 3.7 13 3.3l0.36-0.31c-0.11 1.2-0.058 2.4 0.15 3.6-5.5 6.1-3.9 7.2-15 9.5-11 2.3-4.6 6.4-0.32 7.4 5.2 1.3 17 3.1 25-8.2l-0.32 1.3c2.2 1.7 2 12 2.3 20 0.32 7.6 0.82 15 2.4 19 1.6 4.2 3.4 15 18 12 12-2.6 21-6.3 22-41" clip-path="url(#clipPath378)" stroke="#000" stroke-width="11"/>
  <path d="m203 148c-20 4.2-22-2.7-22-2.7 21-32 30-72 23-82-21-27-58-14-58-14l-0.2 0.035c-4.5-0.9-9-1.4-14-1.4-9.2-0.14-16 2.4-21 6.4 0 0-65-27-62 34 0.65 13 18 98 40 72 7.8-9.4 15-17 15-17 3.7 2.5 8.2 3.7 13 3.3l0.36-0.31c-0.11 1.2-0.057 2.4 0.15 3.6-5.5 6.1-3.9 7.2-15 9.5-11 2.3-4.6 6.4-0.32 7.4 5.2 1.3 17 3.1 25-8.2l-0.32 1.3c2.2 1.7 3.7 11 3.4 20-0.25 8.6-0.42 14 1.3 19 1.7 4.6 3.4 15 18 12 12-2.6 18-9.3 19-20 0.62-7.9 2-6.8 2.1-14l1.1-3.4c1.3-11 0.21-14 7.6-13l1.8 0.16c5.5 0.25 13-0.88 17-2.8 9-4.2 14-11 5.5-9.4z" clip-path="url(#clipPath372)" fill="#336791" stroke-width=".5"/>
  <g stroke="#fff">
   <g stroke-width="3.6">
    <path d="m146 49c-2.2 0.7 36-14 58 14 7.7 9.9-1.2 50-23 82m-54 9.1c-0.56 20 0.14 40 2.1 45 2 4.8 6.2 14 21 11 12-2.6 16-7.6 18-19l4.4-35m-63-103s-65-27-62 34c0.65 13 18 98 40 72 7.8-9.4 15-17 15-17" clip-path="url(#clipPath366)" stroke-linecap="round" stroke-linejoin="round"/>
    <path d="m182 145s1.4 6.9 22 2.7c8.9-1.8 3.5 5.2-5.5 9.4-7.4 3.4-24 4.3-24-0.42-0.7-12 8.7-8.5 8.1-12-0.62-2.8-4.9-5.5-7.6-12-2.4-5.9-33-51 8.6-45 1.5-0.32-11-40-50-41-39-0.58-38 48-38 48" clip-path="url(#clipPath360)" stroke-linecap="round" stroke-linejoin="bevel"/>
    <path d="m117 149c-5.5 6.1-3.9 7.2-15 9.5-11 2.3-4.6 6.4-0.32 7.4 5.2 1.3 17 3.1 25-8.2 2.5-3.4-0.014-8.9-3.4-10-1.6-0.68-3.8-1.5-6.6 1.6z" clip-path="url(#clipPath354)" stroke-linejoin="round"/>
    <path d="m117 149c-0.56-3.6 1.2-7.9 3-13 2.8-7.5 9.3-15 4.1-39-3.8-18-30-3.7-30-1.3s1.2 12-0.42 24c-2.1 15 9.5 28 23 26" clip-path="url(#clipPath348)" stroke-linecap="round" stroke-linejoin="round"/>
   </g>
   <path d="m111 95c-0.12 0.82 1.5 3 3.6 3.3 2.1 0.3 3.9-1.4 4-2.2 0.12-0.83-1.5-1.7-3.6-2-2.1-0.3-3.9 0.14-4 0.96z" clip-path="url(#clipPath342)" fill="#fff" stroke-width="1.2"/>
   <path d="m175 94c0.11 0.82-1.5 3-3.6 3.3-2.1 0.3-3.9-1.4-4-2.2-0.11-0.83 1.5-1.7 3.6-2 2.1-0.3 3.9 0.14 4 0.96z" clip-path="url(#clipPath336)" fill="#fff" stroke-width=".59"/>
   <path d="m183 88c0.35 6.5-1.4 11-1.6 18-0.32 10 4.8 21-2.9 33" clip-path="url(#clipPath330)" stroke-linecap="round" stroke-linejoin="round" stroke-width="3.6"/>
  </g>
 </g>
 <defs>
  <clipPath id="clipPath330">
   <rect x="38" y="38" width="180" height="180" fill="#fff"/>
  </clipPath>
  <clipPath id="clipPath336">
   <rect x="38" y="38" width="180" height="180" fill="#fff"/>
  </clipPath>
  <clipPath id="clipPath342">
   <rect x="38" y="38" width="180" height="180" fill="#fff"/>
  </clipPath>
  <clipPath id="clipPath348">
   <rect x="38" y="38" width="180" height="180" fill="#fff"/>
  </clipPath>
  <clipPath id="clipPath354">
   <rect x="38" y="38" width="180" height="180" fill="#fff"/>
  </clipPath>
  <clipPath id="clipPath360">
   <rect x="38" y="38" width="180" height="180" fill="#fff"/>
  </clipPath>
  <clipPath id="clipPath366">
   <rect x="38" y="38" width="180" height="180" fill="#fff"/>
  </clipPath>
  <clipPath id="clipPath372">
   <rect x="38" y="38" width="180" height="180" fill="#fff"/>
  </clipPath>
  <clipPath id="clipPath378">
   <rect x="38" y="38" width="180" height="180" fill="#fff"/>
  </clipPath>
  <clipPath id="clipPath384">
   <rect x="38" y="38" width="180" height="180" fill="#fff"/>
  </clipPath>
 </defs>
</svg>
