<?xml version="1.0" encoding="UTF-8" standalone="no"?>
<svg
   xmlns:dc="http://purl.org/dc/elements/1.1/"
   xmlns:cc="http://creativecommons.org/ns#"
   xmlns:rdf="http://www.w3.org/1999/02/22-rdf-syntax-ns#"
   xmlns:svg="http://www.w3.org/2000/svg"
   xmlns="http://www.w3.org/2000/svg"
   xmlns:sodipodi="http://sodipodi.sourceforge.net/DTD/sodipodi-0.dtd"
   xmlns:inkscape="http://www.inkscape.org/namespaces/inkscape"
   width="118.53333mm"
   height="118.53333mm"
   viewBox="0 0 118.53334 118.53333"
   version="1.1"
   id="svg8"
   sodipodi:docname="linkedin.svg"
   inkscape:version="1.0.2-2 (e86c870879, 2021-01-15)">
  <defs
     id="defs2" />
  <sodipodi:namedview
     id="base"
     pagecolor="#ffffff"
     bordercolor="#666666"
     borderopacity="1.0"
     inkscape:pageopacity="0.0"
     inkscape:pageshadow="2"
     inkscape:zoom="0.35"
     inkscape:cx="312"
     inkscape:cy="357.23228"
     inkscape:document-units="mm"
     inkscape:current-layer="layer1"
     inkscape:document-rotation="0"
     showgrid="false"
     inkscape:window-width="1920"
     inkscape:window-height="1027"
     inkscape:window-x="760"
     inkscape:window-y="214"
     inkscape:window-maximized="1" />
  <metadata
     id="metadata5">
    <rdf:RDF>
      <cc:Work
         rdf:about="">
        <dc:format>image/svg+xml</dc:format>
        <dc:type
           rdf:resource="http://purl.org/dc/dcmitype/StillImage" />
        <dc:title />
      </cc:Work>
    </rdf:RDF>
  </metadata>
  <g
     inkscape:label="Layer 1"
     inkscape:groupmode="layer"
     id="layer1"
     transform="translate(279.09762,6.8272318)">
    <path
       d="m -169.03095,-6.8272318 h -101.62647 c -4.65666,0 -8.4402,3.836458 -8.4402,8.546041 V 103.16006 c 0,4.70958 3.78354,8.54604 8.4402,8.54604 h 101.62647 c 4.65666,0 8.46666,-3.83646 8.46666,-8.54604 V 1.7188092 c 0,-4.709583 -3.81,-8.546041 -8.46666,-8.546041 z M -243.27304,94.772772 h -17.56833 v -56.56792 h 17.59479 v 56.56792 z m -8.78417,-64.29375 c -5.63562,0 -10.18646,-4.5773 -10.18646,-10.18646 0,-5.60917 4.55084,-10.18646 10.18646,-10.18646 5.60917,0 10.18646,4.57729 10.18646,10.18646 0,5.63562 -4.55083,10.18646 -10.18646,10.18646 z m 74.63896,64.29375 h -17.56833 v -27.51667 c 0,-6.56167 -0.13229,-15.00188 -9.12813,-15.00188 -9.15458,0 -10.55687,7.14375 -10.55687,14.52563 v 27.99292 h -17.56834 v -56.56792 h 16.85396 v 7.72583 h 0.23813 c 2.35479,-4.445 8.09625,-9.12812 16.64229,-9.12812 17.78,0 21.08729,11.72104 21.08729,26.96104 z"
       id="path844"
       style="fill:#f8f8f8;fill-opacity:1;stroke-width:0.264583" />
  </g>
</svg>
