<?xml version="1.0" encoding="UTF-8" standalone="no"?>
<svg
   xmlns:dc="http://purl.org/dc/elements/1.1/"
   xmlns:cc="http://creativecommons.org/ns#"
   xmlns:rdf="http://www.w3.org/1999/02/22-rdf-syntax-ns#"
   xmlns:svg="http://www.w3.org/2000/svg"
   xmlns="http://www.w3.org/2000/svg"
   xmlns:sodipodi="http://sodipodi.sourceforge.net/DTD/sodipodi-0.dtd"
   xmlns:inkscape="http://www.inkscape.org/namespaces/inkscape"
   width="118.53333mm"
   height="118.53333mm"
   viewBox="0 0 118.53334 118.53332"
   version="1.1"
   id="svg8"
   sodipodi:docname="twitter.svg"
   inkscape:version="1.0.2-2 (e86c870879, 2021-01-15)">
  <defs
     id="defs2" />
  <sodipodi:namedview
     id="base"
     pagecolor="#ffffff"
     bordercolor="#666666"
     borderopacity="1.0"
     inkscape:pageopacity="0.0"
     inkscape:pageshadow="2"
     inkscape:zoom="0.35"
     inkscape:cx="904.57142"
     inkscape:cy="92.660842"
     inkscape:document-units="mm"
     inkscape:current-layer="layer1"
     inkscape:document-rotation="0"
     showgrid="false"
     inkscape:window-width="1920"
     inkscape:window-height="1027"
     inkscape:window-x="760"
     inkscape:window-y="214"
     inkscape:window-maximized="1" />
  <metadata
     id="metadata5">
    <rdf:RDF>
      <cc:Work
         rdf:about="">
        <dc:format>image/svg+xml</dc:format>
        <dc:type
           rdf:resource="http://purl.org/dc/dcmitype/StillImage" />
        <dc:title />
      </cc:Work>
    </rdf:RDF>
  </metadata>
  <g
     inkscape:label="Layer 1"
     inkscape:groupmode="layer"
     id="layer1"
     transform="translate(435.88214,-2.6977714)">
    <path
       d="m -330.04881,2.6977714 h -93.13333 c -7.01146,0 -12.7,5.68854 -12.7,12.6999996 V 108.5311 c 0,7.01146 5.68854,12.7 12.7,12.7 h 93.13333 c 7.01146,0 12.7,-5.68854 12.7,-12.7 V 15.397771 c 0,-7.0114596 -5.68854,-12.6999996 -12.7,-12.6999996 z M -342.98693,44.7136 c 0.0529,0.740834 0.0529,1.508125 0.0529,2.248959 0,22.939375 -17.4625,49.37125 -49.37125,49.37125 -9.8425,0 -18.97062,-2.8575 -26.64354,-7.77875 1.40229,0.15875 2.75167,0.211666 4.18042,0.211666 8.12271,0 15.58396,-2.751666 21.53708,-7.408333 -7.62,-0.15875 -14.02291,-5.159375 -16.21896,-12.038542 2.6723,0.396875 5.08,0.396875 7.83167,-0.3175 -7.9375,-1.613958 -13.89062,-8.598958 -13.89062,-17.039166 v -0.211667 c 2.30187,1.296458 5.00062,2.090208 7.83166,2.196042 a 17.316185,17.316185 0 0 1 -7.72583,-14.44625 c 0,-3.227917 0.84667,-6.191248 2.35479,-8.757708 8.54604,10.530416 21.37833,17.409583 35.77167,18.150416 -2.46063,-11.773958 6.35,-21.325416 16.93333,-21.325416 5.00063,0 9.49854,2.09021 12.67354,5.47687 3.91584,-0.74083 7.67292,-2.19604 11.00667,-4.18041 -1.29646,4.02166 -4.02167,7.408331 -7.62,9.551456 3.4925,-0.370417 6.87917,-1.349375 10.00125,-2.69875 -2.35479,3.466042 -5.31813,6.535208 -8.70479,8.995833 z"
       id="path869"
       style="fill:#f8f8f8;fill-opacity:1;stroke-width:0.264583" />
  </g>
</svg>
