<?xml version="1.0" encoding="UTF-8"?>
<svg width="384" height="512" version="1.1" viewBox="0 0 384 512" xmlns="http://www.w3.org/2000/svg" xmlns:cc="http://creativecommons.org/ns#" xmlns:dc="http://purl.org/dc/elements/1.1/" xmlns:rdf="http://www.w3.org/1999/02/22-rdf-syntax-ns#">
 <metadata>
  <rdf:RDF>
   <cc:Work rdf:about="">
    <dc:format>image/svg+xml</dc:format>
    <dc:type rdf:resource="http://purl.org/dc/dcmitype/StillImage"/>
    <dc:title/>
   </cc:Work>
  </rdf:RDF>
 </metadata>
 <!-- Font Awesome Free 5.15.4 by @fontawesome - https://fontawesome.com License - https://fontawesome.com/license/free (Icons: CC BY 4.0, Fonts: SIL OFL 1.1, Code: MIT License) -->
 <path d="m24 0c-13.3 0-24 10.7-24 24v464c0 13.3 10.7 24 24 24h336c13.3 0 24-10.7 24-24v-328h-136c-13.2 0-24-10.8-24-24v-136zm232 0v128h128v-6.0996c0-6.3-2.5-12.4-7-16.9l-97.9-98c-4.5-4.5-10.6-7-17-7zm-143.97 22.758c15.789 1e-6 28.584 12.797 28.584 28.586 0 15.789-12.795 28.584-28.584 28.584-15.789 0-28.586-12.795-28.586-28.584 0-15.789 12.797-28.586 28.586-28.586zm-20.01 64.316h3.7305c4.98 2.2778 10.473 3.5742 16.279 3.5742s11.322-1.2964 16.279-3.5742h3.7305c16.57 0 30.014 13.443 30.014 30.014v20.006s-81.964-0.10937-100.05-0.10937v-19.896c0-16.57 13.443-30.014 30.014-30.014zm-49.906 115.41a13.394 15 0 0 1 2e-3 0 13.394 15 0 0 1 0.13086 0h297.51a13.394 15 0 0 1 13.395 15 13.394 15 0 0 1-13.395 15h-297.51a13.394 15 0 0 1-13.395-15 13.394 15 0 0 1 13.262-15zm2.0527 59.25a13.394 15 0 0 1 2e-3 0 13.394 15 0 0 1 0.13086 0h297.51a13.394 15 0 0 1 13.393 15 13.394 15 0 0 1-13.393 15h-297.51a13.394 15 0 0 1-13.395-15 13.394 15 0 0 1 13.262-15zm-1.1602 59.25a13.394 15 0 0 1 2e-3 0 13.394 15 0 0 1 0.13086 0h297.51a13.394 15 0 0 1 13.395 15 13.394 15 0 0 1-13.395 15h-297.51a13.394 15 0 0 1-13.395-15 13.394 15 0 0 1 13.262-15zm-0.89258 59.25a13.394 15 0 0 1 2e-3 0 13.394 15 0 0 1 0.13086 0h297.51a13.394 15 0 0 1 13.395 15 13.394 15 0 0 1-13.395 15h-297.51a13.394 15 0 0 1-13.395-15 13.394 15 0 0 1 13.262-15zm2e-3 59.25a13.394 15 0 0 1 0.13086 0h297.51a13.394 15 0 0 1 13.395 15 13.394 15 0 0 1-13.395 15h-297.51a13.394 15 0 0 1-13.395-15 13.394 15 0 0 1 13.264-15z" fill="#f8f8ff"/>
</svg>
