<?xml version="1.0" encoding="UTF-8" standalone="no"?>
<svg
   xmlns:dc="http://purl.org/dc/elements/1.1/"
   xmlns:cc="http://creativecommons.org/ns#"
   xmlns:rdf="http://www.w3.org/1999/02/22-rdf-syntax-ns#"
   xmlns:svg="http://www.w3.org/2000/svg"
   xmlns="http://www.w3.org/2000/svg"
   xmlns:sodipodi="http://sodipodi.sourceforge.net/DTD/sodipodi-0.dtd"
   xmlns:inkscape="http://www.inkscape.org/namespaces/inkscape"
   width="384"
   height="336"
   version="1.1"
   viewBox="0 0 384 336"
   id="svg6"
   sodipodi:docname="mySkills2.svg"
   inkscape:version="1.0.2-2 (e86c870879, 2021-01-15)">
  <defs
     id="defs10" />
  <sodipodi:namedview
     pagecolor="#ffffff"
     bordercolor="#666666"
     borderopacity="1"
     objecttolerance="10"
     gridtolerance="10"
     guidetolerance="10"
     inkscape:pageopacity="0"
     inkscape:pageshadow="2"
     inkscape:window-width="1920"
     inkscape:window-height="1027"
     id="namedview8"
     showgrid="false"
     inkscape:zoom="1.4355469"
     inkscape:cx="-111.82303"
     inkscape:cy="195.55271"
     inkscape:window-x="760"
     inkscape:window-y="214"
     inkscape:window-maximized="1"
     inkscape:current-layer="svg6" />
  <metadata
     id="metadata2">
    <rdf:RDF>
      <cc:Work
         rdf:about="">
        <dc:format>image/svg+xml</dc:format>
        <dc:type
           rdf:resource="http://purl.org/dc/dcmitype/StillImage" />
        <dc:title></dc:title>
      </cc:Work>
    </rdf:RDF>
  </metadata>
  <!-- Font Awesome Free 5.15.4 by @fontawesome - https://fontawesome.com License - https://fontawesome.com/license/free (Icons: CC BY 4.0, Fonts: SIL OFL 1.1, Code: MIT License) -->
  <path
     d="M 376.9725,136.97251 343.035,103.035 c -4.5,-4.499998 -10.605,-7.027498 -16.9725,-7.027498 H 288 v -60.0075 C 288,16.1175 271.8825,0 251.99999,0 h -120 C 112.11749,0 96,16.1175 96,36.000001 v 60 H 57.9375 c -6.3675,0 -12.465,2.5275 -16.9725,7.027499 L 7.0275,136.97251 c -4.5,4.5 -7.0275,10.605 -7.0275,16.9725 V 216 h 96 v -12 c 0,-6.62999 5.37,-11.99999 12,-11.99999 h 23.99999 c 6.63,0 12,5.37 12,11.99999 v 12 h 96 v -12 c 0,-6.62999 5.37,-11.99999 12,-11.99999 H 276 c 6.63,0 12,5.37 12,11.99999 v 12 h 96 v -62.06249 c 0,-6.36 -2.5275,-12.465 -7.0275,-16.965 z M 239.99999,96.000002 h -96 v -48 h 96 z M 288,252 c 0,6.63 -5.37,12 -12,12 h -24.00001 c -6.63,0 -12,-5.37 -12,-12 v -12 h -96 v 12 c 0,6.63 -5.37,12 -12,12 H 108 c -6.63,0 -12,-5.37 -12,-12 V 240 H 0 v 72 c 0,13.2525 10.7475,24 24,24 h 336 c 13.2525,0 24,-10.7475 24,-24 v -72 h -96 z"
     id="path846"
     style="fill:#f8f8ff;fill-opacity:1;stroke-width:0.999997" />
</svg>
