<?xml version="1.0" encoding="UTF-8"?>
<svg width="508mm" height="285.75mm" version="1.1" viewBox="0 0 508 285.75" xmlns="http://www.w3.org/2000/svg" xmlns:cc="http://creativecommons.org/ns#" xmlns:dc="http://purl.org/dc/elements/1.1/" xmlns:rdf="http://www.w3.org/1999/02/22-rdf-syntax-ns#">
 <defs>
  <radialGradient id="radialGradient5918" cx="-360.54" cy="-117.26" r="254" gradientTransform="matrix(1.0036 0 0 .55867 1.2941 -51.749)" gradientUnits="userSpaceOnUse">
   <stop stop-color="#1dd1a1" offset="0"/>
   <stop stop-color="#10ac84" offset="1"/>
  </radialGradient>
 </defs>
 <metadata>
  <rdf:RDF>
   <cc:Work rdf:about="">
    <dc:format>image/svg+xml</dc:format>
    <dc:type rdf:resource="http://purl.org/dc/dcmitype/StillImage"/>
    <dc:title/>
   </cc:Work>
  </rdf:RDF>
 </metadata>
 <g transform="translate(614.54 260.13)">
  <path d="m-614.54-260.13h508v285.75h-508z" fill="url(#radialGradient5918)" stroke-linecap="round" stroke-linejoin="bevel" stroke-width="1.0649" style="paint-order:stroke fill markers"/>
  <g fill="#1dd1a1" fill-rule="evenodd" shape-rendering="auto">
   <path d="m-130.86-211.68v-51.309h-0.56444v50.745h-38.019v0.56444z" color="#000000" color-rendering="auto" image-rendering="auto" solid-color="#000000" style="isolation:auto;mix-blend-mode:normal;text-decoration-color:#000000;text-decoration-line:none;text-decoration-style:solid;text-indent:0;text-transform:none;white-space:normal"/>
   <path d="m-172.3-210.39c0.86184 0 1.5666-0.70471 1.5666-1.5666s-0.70472-1.5666-1.5666-1.5666c-0.86183 0-1.5666 0.70471-1.5666 1.5666s0.70472 1.5666 1.5666 1.5666zm0-0.56444c-0.55679 0-1.0021-0.44532-1.0021-1.0021s0.44531-1.0021 1.0021-1.0021 1.0021 0.44532 1.0021 1.0021-0.44532 1.0021-1.0021 1.0021z" color="#000000" color-rendering="auto" image-rendering="auto" solid-color="#000000" style="isolation:auto;mix-blend-mode:normal;text-decoration-color:#000000;text-decoration-line:none;text-decoration-style:solid;text-indent:0;text-transform:none;white-space:normal"/>
   <path d="m-145.17-232.19v-0.56445h-168.48v0.56445z" color="#000000" color-rendering="auto" image-rendering="auto" solid-color="#000000" style="isolation:auto;mix-blend-mode:normal;text-decoration-color:#000000;text-decoration-line:none;text-decoration-style:solid;text-indent:0;text-transform:none;white-space:normal"/>
   <path d="m-316.51-230.91c0.86184 0 1.5666-0.70472 1.5666-1.5666 1e-5 -0.86184-0.70471-1.5666-1.5666-1.5666s-1.5666 0.70471-1.5666 1.5666c0 0.86184 0.70471 1.5666 1.5666 1.5666zm0-0.56445c-0.55679 0-1.0021-0.44532-1.0021-1.0021s0.44532-1.0021 1.0021-1.0021 1.0021 0.44533 1.0021 1.0021c0 0.55679-0.44532 1.0021-1.0021 1.0021z" color="#000000" color-rendering="auto" image-rendering="auto" solid-color="#000000" style="isolation:auto;mix-blend-mode:normal;text-decoration-color:#000000;text-decoration-line:none;text-decoration-style:solid;text-indent:0;text-transform:none;white-space:normal"/>
   <path d="m-142.32-230.91c0.86184 0 1.5666-0.70472 1.5666-1.5666s-0.70472-1.5666-1.5666-1.5666-1.5666 0.70471-1.5666 1.5666 0.70472 1.5666 1.5666 1.5666zm0-0.56445c-0.55679 0-1.0021-0.44532-1.0021-1.0021s0.44533-1.0021 1.0021-1.0021c0.55679 0 1.0021 0.44532 1.0021 1.0021s-0.44533 1.0021-1.0021 1.0021z" color="#000000" color-rendering="auto" image-rendering="auto" solid-color="#000000" style="isolation:auto;mix-blend-mode:normal;text-decoration-color:#000000;text-decoration-line:none;text-decoration-style:solid;text-indent:0;text-transform:none;white-space:normal"/>
   <path d="m-220.18-239.72v-42.051h-0.56444v41.487h-104.2v0.56444z" color="#000000" color-rendering="auto" image-rendering="auto" solid-color="#000000" style="isolation:auto;mix-blend-mode:normal;text-decoration-color:#000000;text-decoration-line:none;text-decoration-style:solid;text-indent:0;text-transform:none;white-space:normal"/>
   <path d="m-327.8-238.43c0.86184 0 1.5666-0.70472 1.5666-1.5666 1e-5 -0.86184-0.70471-1.5666-1.5666-1.5666s-1.5666 0.70471-1.5666 1.5666c0 0.86184 0.70471 1.5666 1.5666 1.5666zm0-0.56444c-0.55679 0-1.0021-0.44532-1.0021-1.0021s0.44532-1.0021 1.0021-1.0021 1.0021 0.44532 1.0021 1.0021-0.44532 1.0021-1.0021 1.0021z" color="#000000" color-rendering="auto" image-rendering="auto" solid-color="#000000" style="isolation:auto;mix-blend-mode:normal;text-decoration-color:#000000;text-decoration-line:none;text-decoration-style:solid;text-indent:0;text-transform:none;white-space:normal"/>
   <path d="m-229.55-250.4v-42.051h-0.56444v41.487h-73.982v0.56445z" color="#000000" color-rendering="auto" image-rendering="auto" solid-color="#000000" style="isolation:auto;mix-blend-mode:normal;text-decoration-color:#000000;text-decoration-line:none;text-decoration-style:solid;text-indent:0;text-transform:none;white-space:normal"/>
   <path d="m-177.4-188.82 0.39908-0.39908-33.723-33.723h-130.51v0.56445h130.27z" color="#000000" color-rendering="auto" image-rendering="auto" solid-color="#000000" style="isolation:auto;mix-blend-mode:normal;text-decoration-color:#000000;text-decoration-line:none;text-decoration-style:solid;text-indent:0;text-transform:none;white-space:normal"/>
   <path d="m-175.18-185.43c0.40174 0 0.80307-0.15263 1.1079-0.45751 0.60976-0.60975 0.60976-1.6067 0-2.2164-0.60975-0.60976-1.6067-0.60976-2.2164 0-0.60976 0.60975-0.60976 1.6067 0 2.2164 0.30488 0.30488 0.70676 0.45751 1.1085 0.45751zm0-0.56114c-0.25609 0-0.51238-0.0984-0.70941-0.29545-0.39406-0.39405-0.39406-1.0242 0-1.4183 0.39406-0.39405 1.0242-0.39405 1.4183 0 0.39405 0.39406 0.39405 1.0242 0 1.4183-0.19703 0.19703-0.45277 0.29545-0.70887 0.29545z" color="#000000" color-rendering="auto" image-rendering="auto" solid-color="#000000" style="isolation:auto;mix-blend-mode:normal;text-decoration-color:#000000;text-decoration-line:none;text-decoration-style:solid;text-indent:0;text-transform:none;white-space:normal"/>
   <path d="m-111.53-117.26v-157.96h-0.56444v157.96z" color="#000000" color-rendering="auto" image-rendering="auto" solid-color="#000000" style="isolation:auto;mix-blend-mode:normal;text-decoration-color:#000000;text-decoration-line:none;text-decoration-style:solid;text-indent:0;text-transform:none;white-space:normal"/>
   <path d="m-344.08-221.09c0.86183 0 1.5666-0.70472 1.5666-1.5666 0-0.86183-0.70472-1.5666-1.5666-1.5666-0.86184 0-1.5666 0.70472-1.5666 1.5666 0 0.86184 0.70472 1.5666 1.5666 1.5666zm0-0.56445c-0.55679 0-1.0021-0.44532-1.0021-1.0021s0.44531-1.0021 1.0021-1.0021c0.55678 0 1.0021 0.44531 1.0021 1.0021s-0.44533 1.0021-1.0021 1.0021z" color="#000000" color-rendering="auto" image-rendering="auto" solid-color="#000000" style="isolation:auto;mix-blend-mode:normal;text-decoration-color:#000000;text-decoration-line:none;text-decoration-style:solid;text-indent:0;text-transform:none;white-space:normal"/>
   <path d="m-136.81-175.34v-0.56445h-40.276l-33.641-33.64h-93.374v0.56444h93.14l33.64 33.64z" color="#000000" color-rendering="auto" image-rendering="auto" solid-color="#000000" style="isolation:auto;mix-blend-mode:normal;text-decoration-color:#000000;text-decoration-line:none;text-decoration-style:solid;text-indent:0;text-transform:none;white-space:normal"/>
   <path d="m-133.95-174.05c0.86184 0 1.5666-0.70472 1.5666-1.5666 0-0.86183-0.70471-1.5666-1.5666-1.5666s-1.5666 0.70472-1.5666 1.5666c0 0.86184 0.70472 1.5666 1.5666 1.5666zm0-0.56445c-0.55679 0-1.0021-0.44532-1.0021-1.0021s0.44532-1.0021 1.0021-1.0021 1.0021 0.44533 1.0021 1.0021c0 0.5568-0.44532 1.0021-1.0021 1.0021z" color="#000000" color-rendering="auto" image-rendering="auto" solid-color="#000000" style="isolation:auto;mix-blend-mode:normal;text-decoration-color:#000000;text-decoration-line:none;text-decoration-style:solid;text-indent:0;text-transform:none;white-space:normal"/>
   <path d="m-145.17-243.48v-0.56445h-62.04v0.56445z" color="#000000" color-rendering="auto" image-rendering="auto" solid-color="#000000" style="isolation:auto;mix-blend-mode:normal;text-decoration-color:#000000;text-decoration-line:none;text-decoration-style:solid;text-indent:0;text-transform:none;white-space:normal"/>
   <path d="m-210.06-242.2c0.86184 0 1.5666-0.70472 1.5666-1.5666 0-0.86183-0.70472-1.5666-1.5666-1.5666s-1.5666 0.70472-1.5666 1.5666c0 0.86184 0.70471 1.5666 1.5666 1.5666zm0-0.56445c-0.55679 0-1.0021-0.44532-1.0021-1.0021s0.44532-1.0021 1.0021-1.0021 1.0021 0.44532 1.0021 1.0021c0 0.55679-0.44532 1.0021-1.0021 1.0021z" color="#000000" color-rendering="auto" image-rendering="auto" solid-color="#000000" style="isolation:auto;mix-blend-mode:normal;text-decoration-color:#000000;text-decoration-line:none;text-decoration-style:solid;text-indent:0;text-transform:none;white-space:normal"/>
   <path d="m-142.32-242.2c0.86184 0 1.5666-0.70472 1.5666-1.5666 0-0.86183-0.70472-1.5666-1.5666-1.5666s-1.5666 0.70472-1.5666 1.5666c0 0.86184 0.70472 1.5666 1.5666 1.5666zm0-0.56445c-0.55679 0-1.0021-0.44532-1.0021-1.0021s0.44533-1.0021 1.0021-1.0021c0.55679 0 1.0021 0.44531 1.0021 1.0021s-0.44533 1.0021-1.0021 1.0021z" color="#000000" color-rendering="auto" image-rendering="auto" solid-color="#000000" style="isolation:auto;mix-blend-mode:normal;text-decoration-color:#000000;text-decoration-line:none;text-decoration-style:solid;text-indent:0;text-transform:none;white-space:normal"/>
   <path d="m-145.17-254.77v-0.56445h-39.462v0.56445z" color="#000000" color-rendering="auto" image-rendering="auto" solid-color="#000000" style="isolation:auto;mix-blend-mode:normal;text-decoration-color:#000000;text-decoration-line:none;text-decoration-style:solid;text-indent:0;text-transform:none;white-space:normal"/>
   <path d="m-187.49-253.48c0.86184 0 1.5666-0.70472 1.5666-1.5666 0-0.86184-0.70472-1.5666-1.5666-1.5666s-1.5666 0.70472-1.5666 1.5666c0 0.86183 0.70471 1.5666 1.5666 1.5666zm0-0.56445c-0.55679 0-1.0021-0.44531-1.0021-1.0021 0-0.5568 0.44532-1.0021 1.0021-1.0021s1.0021 0.44531 1.0021 1.0021c0 0.55678-0.44532 1.0021-1.0021 1.0021z" color="#000000" color-rendering="auto" image-rendering="auto" solid-color="#000000" style="isolation:auto;mix-blend-mode:normal;text-decoration-color:#000000;text-decoration-line:none;text-decoration-style:solid;text-indent:0;text-transform:none;white-space:normal"/>
   <path d="m-142.32-253.48c0.86184 0 1.5666-0.70472 1.5666-1.5666 0-0.86184-0.70472-1.5666-1.5666-1.5666s-1.5666 0.70472-1.5666 1.5666c0 0.86183 0.70472 1.5666 1.5666 1.5666zm0-0.56445c-0.55679 0-1.0021-0.44531-1.0021-1.0021 0-0.5568 0.44533-1.0021 1.0021-1.0021 0.55679 0 1.0021 0.44531 1.0021 1.0021 0 0.55678-0.44533 1.0021-1.0021 1.0021z" color="#000000" color-rendering="auto" image-rendering="auto" solid-color="#000000" style="isolation:auto;mix-blend-mode:normal;text-decoration-color:#000000;text-decoration-line:none;text-decoration-style:solid;text-indent:0;text-transform:none;white-space:normal"/>
   <path d="m-125.22-96.826v98.89h-0.56445v-98.89z" color="#000000" color-rendering="auto" image-rendering="auto" solid-color="#000000" style="isolation:auto;mix-blend-mode:normal;text-decoration-color:#000000;text-decoration-line:none;text-decoration-style:solid;text-indent:0;text-transform:none;white-space:normal"/>
   <path d="m-125.5 3.3478c0.86184 0 1.5666 0.70472 1.5666 1.5666 0 0.86184-0.70472 1.5666-1.5666 1.5666-0.86184 0-1.5666-0.70472-1.5666-1.5666 0-0.86183 0.70472-1.5666 1.5666-1.5666zm0 0.56445c-0.55679 0-1.0021 0.44532-1.0021 1.0021 0 0.5568 0.44532 1.0021 1.0021 1.0021s1.0021-0.44531 1.0021-1.0021c0-0.55678-0.44532-1.0021-1.0021-1.0021z" color="#000000" color-rendering="auto" image-rendering="auto" solid-color="#000000" style="isolation:auto;mix-blend-mode:normal;text-decoration-color:#000000;text-decoration-line:none;text-decoration-style:solid;text-indent:0;text-transform:none;white-space:normal"/>
   <path d="m-130.86-22.838v51.309h-0.56444v-50.745h-38.019v-0.56444z" color="#000000" color-rendering="auto" image-rendering="auto" solid-color="#000000" style="isolation:auto;mix-blend-mode:normal;text-decoration-color:#000000;text-decoration-line:none;text-decoration-style:solid;text-indent:0;text-transform:none;white-space:normal"/>
   <path d="m-172.3-24.123c0.86184 0 1.5666 0.70471 1.5666 1.5666s-0.70472 1.5666-1.5666 1.5666c-0.86183 0-1.5666-0.70471-1.5666-1.5666s0.70472-1.5666 1.5666-1.5666zm0 0.56444c-0.55679 0-1.0021 0.44532-1.0021 1.0021s0.44531 1.0021 1.0021 1.0021 1.0021-0.44532 1.0021-1.0021-0.44532-1.0021-1.0021-1.0021z" color="#000000" color-rendering="auto" image-rendering="auto" solid-color="#000000" style="isolation:auto;mix-blend-mode:normal;text-decoration-color:#000000;text-decoration-line:none;text-decoration-style:solid;text-indent:0;text-transform:none;white-space:normal"/>
   <path d="m-145.17-2.3248v0.56445h-168.48v-0.56445z" color="#000000" color-rendering="auto" image-rendering="auto" solid-color="#000000" style="isolation:auto;mix-blend-mode:normal;text-decoration-color:#000000;text-decoration-line:none;text-decoration-style:solid;text-indent:0;text-transform:none;white-space:normal"/>
   <path d="m-316.51-3.6091c0.86184 0 1.5666 0.70472 1.5666 1.5666 1e-5 0.86184-0.70471 1.5666-1.5666 1.5666s-1.5666-0.70471-1.5666-1.5666c0-0.86184 0.70471-1.5666 1.5666-1.5666zm0 0.56445c-0.55679 0-1.0021 0.44532-1.0021 1.0021s0.44532 1.0021 1.0021 1.0021 1.0021-0.44533 1.0021-1.0021c0-0.55679-0.44532-1.0021-1.0021-1.0021z" color="#000000" color-rendering="auto" image-rendering="auto" solid-color="#000000" style="isolation:auto;mix-blend-mode:normal;text-decoration-color:#000000;text-decoration-line:none;text-decoration-style:solid;text-indent:0;text-transform:none;white-space:normal"/>
   <path d="m-142.32-3.6091c0.86184 0 1.5666 0.70472 1.5666 1.5666s-0.70472 1.5666-1.5666 1.5666-1.5666-0.70471-1.5666-1.5666 0.70472-1.5666 1.5666-1.5666zm0 0.56445c-0.55679 0-1.0021 0.44532-1.0021 1.0021s0.44533 1.0021 1.0021 1.0021c0.55679 0 1.0021-0.44532 1.0021-1.0021s-0.44533-1.0021-1.0021-1.0021z" color="#000000" color-rendering="auto" image-rendering="auto" solid-color="#000000" style="isolation:auto;mix-blend-mode:normal;text-decoration-color:#000000;text-decoration-line:none;text-decoration-style:solid;text-indent:0;text-transform:none;white-space:normal"/>
   <path d="m-220.18 5.202v42.051h-0.56444v-41.487h-104.2v-0.56444z" color="#000000" color-rendering="auto" image-rendering="auto" solid-color="#000000" style="isolation:auto;mix-blend-mode:normal;text-decoration-color:#000000;text-decoration-line:none;text-decoration-style:solid;text-indent:0;text-transform:none;white-space:normal"/>
   <path d="m-327.8 3.9177c0.86184 0 1.5666 0.70472 1.5666 1.5666 1e-5 0.86184-0.70471 1.5666-1.5666 1.5666s-1.5666-0.70471-1.5666-1.5666c0-0.86184 0.70471-1.5666 1.5666-1.5666zm0 0.56444c-0.55679 0-1.0021 0.44532-1.0021 1.0021s0.44532 1.0021 1.0021 1.0021 1.0021-0.44532 1.0021-1.0021-0.44532-1.0021-1.0021-1.0021z" color="#000000" color-rendering="auto" image-rendering="auto" solid-color="#000000" style="isolation:auto;mix-blend-mode:normal;text-decoration-color:#000000;text-decoration-line:none;text-decoration-style:solid;text-indent:0;text-transform:none;white-space:normal"/>
   <path d="m-229.55 15.886v42.051h-0.56444v-41.487h-73.982v-0.56445z" color="#000000" color-rendering="auto" image-rendering="auto" solid-color="#000000" style="isolation:auto;mix-blend-mode:normal;text-decoration-color:#000000;text-decoration-line:none;text-decoration-style:solid;text-indent:0;text-transform:none;white-space:normal"/>
   <path d="m-177.4-45.699 0.39908 0.39908-33.723 33.723h-130.51v-0.56445h130.27z" color="#000000" color-rendering="auto" image-rendering="auto" solid-color="#000000" style="isolation:auto;mix-blend-mode:normal;text-decoration-color:#000000;text-decoration-line:none;text-decoration-style:solid;text-indent:0;text-transform:none;white-space:normal"/>
   <path d="m-175.18-49.081c0.40174 0 0.80307 0.15263 1.1079 0.45751 0.60976 0.60975 0.60976 1.6067 0 2.2164-0.60975 0.60976-1.6067 0.60976-2.2164 0-0.60976-0.60975-0.60976-1.6067 0-2.2164 0.30488-0.30488 0.70676-0.45751 1.1085-0.45751zm0 0.56114c-0.25609 0-0.51238 0.0984-0.70941 0.29545-0.39406 0.39405-0.39406 1.0242 0 1.4183 0.39406 0.39405 1.0242 0.39405 1.4183 0 0.39405-0.39406 0.39405-1.0242 0-1.4183-0.19703-0.19703-0.45277-0.29545-0.70887-0.29545z" color="#000000" color-rendering="auto" image-rendering="auto" solid-color="#000000" style="isolation:auto;mix-blend-mode:normal;text-decoration-color:#000000;text-decoration-line:none;text-decoration-style:solid;text-indent:0;text-transform:none;white-space:normal"/>
   <path d="m-111.53-117.26v157.96h-0.56444v-157.96z" color="#000000" color-rendering="auto" image-rendering="auto" solid-color="#000000" style="isolation:auto;mix-blend-mode:normal;text-decoration-color:#000000;text-decoration-line:none;text-decoration-style:solid;text-indent:0;text-transform:none;white-space:normal"/>
   <path d="m-344.08-13.425c0.86183 0 1.5666 0.70472 1.5666 1.5666 0 0.86183-0.70472 1.5666-1.5666 1.5666-0.86184 0-1.5666-0.70472-1.5666-1.5666 0-0.86184 0.70472-1.5666 1.5666-1.5666zm0 0.56445c-0.55679 0-1.0021 0.44532-1.0021 1.0021s0.44531 1.0021 1.0021 1.0021c0.55678 0 1.0021-0.44531 1.0021-1.0021s-0.44533-1.0021-1.0021-1.0021z" color="#000000" color-rendering="auto" image-rendering="auto" solid-color="#000000" style="isolation:auto;mix-blend-mode:normal;text-decoration-color:#000000;text-decoration-line:none;text-decoration-style:solid;text-indent:0;text-transform:none;white-space:normal"/>
   <path d="m-136.81-59.18v0.56445h-40.276l-33.641 33.64h-93.374v-0.56444h93.14l33.64-33.64z" color="#000000" color-rendering="auto" image-rendering="auto" solid-color="#000000" style="isolation:auto;mix-blend-mode:normal;text-decoration-color:#000000;text-decoration-line:none;text-decoration-style:solid;text-indent:0;text-transform:none;white-space:normal"/>
   <path d="m-133.95-60.465c0.86184 0 1.5666 0.70472 1.5666 1.5666 0 0.86183-0.70471 1.5666-1.5666 1.5666s-1.5666-0.70472-1.5666-1.5666c0-0.86184 0.70472-1.5666 1.5666-1.5666zm0 0.56445c-0.55679 0-1.0021 0.44532-1.0021 1.0021s0.44532 1.0021 1.0021 1.0021 1.0021-0.44533 1.0021-1.0021c0-0.5568-0.44532-1.0021-1.0021-1.0021z" color="#000000" color-rendering="auto" image-rendering="auto" solid-color="#000000" style="isolation:auto;mix-blend-mode:normal;text-decoration-color:#000000;text-decoration-line:none;text-decoration-style:solid;text-indent:0;text-transform:none;white-space:normal"/>
   <path d="m-145.17 8.9641v0.56445h-62.04v-0.56445z" color="#000000" color-rendering="auto" image-rendering="auto" solid-color="#000000" style="isolation:auto;mix-blend-mode:normal;text-decoration-color:#000000;text-decoration-line:none;text-decoration-style:solid;text-indent:0;text-transform:none;white-space:normal"/>
   <path d="m-210.06 7.6798c0.86184 0 1.5666 0.70472 1.5666 1.5666 0 0.86183-0.70472 1.5666-1.5666 1.5666s-1.5666-0.70472-1.5666-1.5666c0-0.86184 0.70471-1.5666 1.5666-1.5666zm0 0.56445c-0.55679 0-1.0021 0.44532-1.0021 1.0021s0.44532 1.0021 1.0021 1.0021 1.0021-0.44532 1.0021-1.0021c0-0.55679-0.44532-1.0021-1.0021-1.0021z" color="#000000" color-rendering="auto" image-rendering="auto" solid-color="#000000" style="isolation:auto;mix-blend-mode:normal;text-decoration-color:#000000;text-decoration-line:none;text-decoration-style:solid;text-indent:0;text-transform:none;white-space:normal"/>
   <path d="m-142.32 7.6798c0.86184 0 1.5666 0.70472 1.5666 1.5666 0 0.86183-0.70472 1.5666-1.5666 1.5666s-1.5666-0.70472-1.5666-1.5666c0-0.86184 0.70472-1.5666 1.5666-1.5666zm0 0.56445c-0.55679 0-1.0021 0.44532-1.0021 1.0021s0.44533 1.0021 1.0021 1.0021c0.55679 0 1.0021-0.44531 1.0021-1.0021s-0.44533-1.0021-1.0021-1.0021z" color="#000000" color-rendering="auto" image-rendering="auto" solid-color="#000000" style="isolation:auto;mix-blend-mode:normal;text-decoration-color:#000000;text-decoration-line:none;text-decoration-style:solid;text-indent:0;text-transform:none;white-space:normal"/>
   <path d="m-145.17 20.253v0.56445h-39.462v-0.56445z" color="#000000" color-rendering="auto" image-rendering="auto" solid-color="#000000" style="isolation:auto;mix-blend-mode:normal;text-decoration-color:#000000;text-decoration-line:none;text-decoration-style:solid;text-indent:0;text-transform:none;white-space:normal"/>
   <path d="m-187.49 18.969c0.86184 0 1.5666 0.70472 1.5666 1.5666 0 0.86184-0.70472 1.5666-1.5666 1.5666s-1.5666-0.70472-1.5666-1.5666c0-0.86183 0.70471-1.5666 1.5666-1.5666zm0 0.56445c-0.55679 0-1.0021 0.44531-1.0021 1.0021 0 0.5568 0.44532 1.0021 1.0021 1.0021s1.0021-0.44531 1.0021-1.0021c0-0.55678-0.44532-1.0021-1.0021-1.0021z" color="#000000" color-rendering="auto" image-rendering="auto" solid-color="#000000" style="isolation:auto;mix-blend-mode:normal;text-decoration-color:#000000;text-decoration-line:none;text-decoration-style:solid;text-indent:0;text-transform:none;white-space:normal"/>
   <path d="m-142.32 18.969c0.86184 0 1.5666 0.70472 1.5666 1.5666 0 0.86184-0.70472 1.5666-1.5666 1.5666s-1.5666-0.70472-1.5666-1.5666c0-0.86183 0.70472-1.5666 1.5666-1.5666zm0 0.56445c-0.55679 0-1.0021 0.44531-1.0021 1.0021 0 0.5568 0.44533 1.0021 1.0021 1.0021 0.55679 0 1.0021-0.44531 1.0021-1.0021 0-0.55678-0.44533-1.0021-1.0021-1.0021z" color="#000000" color-rendering="auto" image-rendering="auto" solid-color="#000000" style="isolation:auto;mix-blend-mode:normal;text-decoration-color:#000000;text-decoration-line:none;text-decoration-style:solid;text-indent:0;text-transform:none;white-space:normal"/>
   <path d="m-595.86-137.69v-98.89h0.56445v98.89z" color="#000000" color-rendering="auto" image-rendering="auto" solid-color="#000000" style="isolation:auto;mix-blend-mode:normal;text-decoration-color:#000000;text-decoration-line:none;text-decoration-style:solid;text-indent:0;text-transform:none;white-space:normal"/>
   <path d="m-595.58-237.86c-0.86184 0-1.5666-0.70472-1.5666-1.5666 0-0.86184 0.70472-1.5666 1.5666-1.5666 0.86184 0 1.5666 0.70472 1.5666 1.5666 0 0.86183-0.70472 1.5666-1.5666 1.5666zm0-0.56445c0.55679 0 1.0021-0.44532 1.0021-1.0021 0-0.5568-0.44532-1.0021-1.0021-1.0021s-1.0021 0.44531-1.0021 1.0021c0 0.55678 0.44532 1.0021 1.0021 1.0021z" color="#000000" color-rendering="auto" image-rendering="auto" solid-color="#000000" style="isolation:auto;mix-blend-mode:normal;text-decoration-color:#000000;text-decoration-line:none;text-decoration-style:solid;text-indent:0;text-transform:none;white-space:normal"/>
   <path d="m-590.22-211.68v-51.309h0.56444v50.745h38.019v0.56444z" color="#000000" color-rendering="auto" image-rendering="auto" solid-color="#000000" style="isolation:auto;mix-blend-mode:normal;text-decoration-color:#000000;text-decoration-line:none;text-decoration-style:solid;text-indent:0;text-transform:none;white-space:normal"/>
   <path d="m-548.78-210.39c-0.86184 0-1.5666-0.70471-1.5666-1.5666s0.70472-1.5666 1.5666-1.5666c0.86183 0 1.5666 0.70471 1.5666 1.5666s-0.70472 1.5666-1.5666 1.5666zm0-0.56444c0.55679 0 1.0021-0.44532 1.0021-1.0021s-0.44531-1.0021-1.0021-1.0021-1.0021 0.44532-1.0021 1.0021 0.44532 1.0021 1.0021 1.0021z" color="#000000" color-rendering="auto" image-rendering="auto" solid-color="#000000" style="isolation:auto;mix-blend-mode:normal;text-decoration-color:#000000;text-decoration-line:none;text-decoration-style:solid;text-indent:0;text-transform:none;white-space:normal"/>
   <path d="m-575.91-232.19v-0.56445h168.48v0.56445z" color="#000000" color-rendering="auto" image-rendering="auto" solid-color="#000000" style="isolation:auto;mix-blend-mode:normal;text-decoration-color:#000000;text-decoration-line:none;text-decoration-style:solid;text-indent:0;text-transform:none;white-space:normal"/>
   <path d="m-404.57-230.91c-0.86184 0-1.5666-0.70472-1.5666-1.5666-1e-5 -0.86184 0.70471-1.5666 1.5666-1.5666s1.5666 0.70471 1.5666 1.5666c0 0.86184-0.70471 1.5666-1.5666 1.5666zm0-0.56445c0.55679 0 1.0021-0.44532 1.0021-1.0021s-0.44532-1.0021-1.0021-1.0021-1.0021 0.44533-1.0021 1.0021c0 0.55679 0.44532 1.0021 1.0021 1.0021z" color="#000000" color-rendering="auto" image-rendering="auto" solid-color="#000000" style="isolation:auto;mix-blend-mode:normal;text-decoration-color:#000000;text-decoration-line:none;text-decoration-style:solid;text-indent:0;text-transform:none;white-space:normal"/>
   <path d="m-578.76-230.91c-0.86184 0-1.5666-0.70472-1.5666-1.5666s0.70472-1.5666 1.5666-1.5666 1.5666 0.70471 1.5666 1.5666-0.70472 1.5666-1.5666 1.5666zm0-0.56445c0.55679 0 1.0021-0.44532 1.0021-1.0021s-0.44533-1.0021-1.0021-1.0021c-0.55679 0-1.0021 0.44532-1.0021 1.0021s0.44533 1.0021 1.0021 1.0021z" color="#000000" color-rendering="auto" image-rendering="auto" solid-color="#000000" style="isolation:auto;mix-blend-mode:normal;text-decoration-color:#000000;text-decoration-line:none;text-decoration-style:solid;text-indent:0;text-transform:none;white-space:normal"/>
   <path d="m-500.9-239.72v-42.051h0.56444v41.487h104.2v0.56444z" color="#000000" color-rendering="auto" image-rendering="auto" solid-color="#000000" style="isolation:auto;mix-blend-mode:normal;text-decoration-color:#000000;text-decoration-line:none;text-decoration-style:solid;text-indent:0;text-transform:none;white-space:normal"/>
   <path d="m-393.29-238.43c-0.86184 0-1.5666-0.70472-1.5666-1.5666-1e-5 -0.86184 0.70471-1.5666 1.5666-1.5666s1.5666 0.70471 1.5666 1.5666c0 0.86184-0.70471 1.5666-1.5666 1.5666zm0-0.56444c0.55679 0 1.0021-0.44532 1.0021-1.0021s-0.44532-1.0021-1.0021-1.0021-1.0021 0.44532-1.0021 1.0021 0.44532 1.0021 1.0021 1.0021z" color="#000000" color-rendering="auto" image-rendering="auto" solid-color="#000000" style="isolation:auto;mix-blend-mode:normal;text-decoration-color:#000000;text-decoration-line:none;text-decoration-style:solid;text-indent:0;text-transform:none;white-space:normal"/>
   <path d="m-491.53-250.4v-42.051h0.56444v41.487h186.87v0.56445z" color="#000000" color-rendering="auto" image-rendering="auto" solid-color="#000000" style="isolation:auto;mix-blend-mode:normal;text-decoration-color:#000000;text-decoration-line:none;text-decoration-style:solid;text-indent:0;text-transform:none;white-space:normal"/>
   <path d="m-543.68-188.82-0.39908-0.39908 33.723-33.723h130.51v0.56445h-130.27z" color="#000000" color-rendering="auto" image-rendering="auto" solid-color="#000000" style="isolation:auto;mix-blend-mode:normal;text-decoration-color:#000000;text-decoration-line:none;text-decoration-style:solid;text-indent:0;text-transform:none;white-space:normal"/>
   <path d="m-545.9-185.43c-0.40174 0-0.80307-0.15263-1.1079-0.45751-0.60976-0.60975-0.60976-1.6067 0-2.2164 0.60975-0.60976 1.6067-0.60976 2.2164 0 0.60976 0.60975 0.60976 1.6067 0 2.2164-0.30488 0.30488-0.70676 0.45751-1.1085 0.45751zm0-0.56114c0.25609 0 0.51238-0.0984 0.70941-0.29545 0.39406-0.39405 0.39406-1.0242 0-1.4183-0.39406-0.39405-1.0242-0.39405-1.4183 0-0.39405 0.39406-0.39405 1.0242 0 1.4183 0.19703 0.19703 0.45277 0.29545 0.70887 0.29545z" color="#000000" color-rendering="auto" image-rendering="auto" solid-color="#000000" style="isolation:auto;mix-blend-mode:normal;text-decoration-color:#000000;text-decoration-line:none;text-decoration-style:solid;text-indent:0;text-transform:none;white-space:normal"/>
   <path d="m-609.55-117.26v-157.96h0.56444v157.96z" color="#000000" color-rendering="auto" image-rendering="auto" solid-color="#000000" style="isolation:auto;mix-blend-mode:normal;text-decoration-color:#000000;text-decoration-line:none;text-decoration-style:solid;text-indent:0;text-transform:none;white-space:normal"/>
   <path d="m-377-221.09c-0.86183 0-1.5666-0.70472-1.5666-1.5666 0-0.86183 0.70472-1.5666 1.5666-1.5666 0.86184 0 1.5666 0.70472 1.5666 1.5666 0 0.86184-0.70472 1.5666-1.5666 1.5666zm0-0.56445c0.55679 0 1.0021-0.44532 1.0021-1.0021s-0.44531-1.0021-1.0021-1.0021c-0.55678 0-1.0021 0.44531-1.0021 1.0021s0.44533 1.0021 1.0021 1.0021z" color="#000000" color-rendering="auto" image-rendering="auto" solid-color="#000000" style="isolation:auto;mix-blend-mode:normal;text-decoration-color:#000000;text-decoration-line:none;text-decoration-style:solid;text-indent:0;text-transform:none;white-space:normal"/>
   <path d="m-584.28-175.34v-0.56445h40.276l33.641-33.64h206.26v0.56444h-206.03l-33.64 33.64z" color="#000000" color-rendering="auto" image-rendering="auto" solid-color="#000000" style="isolation:auto;mix-blend-mode:normal;text-decoration-color:#000000;text-decoration-line:none;text-decoration-style:solid;text-indent:0;text-transform:none;white-space:normal"/>
   <path d="m-587.13-174.05c-0.86184 0-1.5666-0.70472-1.5666-1.5666 0-0.86183 0.70471-1.5666 1.5666-1.5666s1.5666 0.70472 1.5666 1.5666c0 0.86184-0.70472 1.5666-1.5666 1.5666zm0-0.56445c0.55679 0 1.0021-0.44532 1.0021-1.0021s-0.44532-1.0021-1.0021-1.0021-1.0021 0.44533-1.0021 1.0021c0 0.5568 0.44532 1.0021 1.0021 1.0021z" color="#000000" color-rendering="auto" image-rendering="auto" solid-color="#000000" style="isolation:auto;mix-blend-mode:normal;text-decoration-color:#000000;text-decoration-line:none;text-decoration-style:solid;text-indent:0;text-transform:none;white-space:normal"/>
   <path d="m-575.91-243.48v-0.56445h62.04v0.56445z" color="#000000" color-rendering="auto" image-rendering="auto" solid-color="#000000" style="isolation:auto;mix-blend-mode:normal;text-decoration-color:#000000;text-decoration-line:none;text-decoration-style:solid;text-indent:0;text-transform:none;white-space:normal"/>
   <path d="m-511.02-242.2c-0.86184 0-1.5666-0.70472-1.5666-1.5666 0-0.86183 0.70472-1.5666 1.5666-1.5666s1.5666 0.70472 1.5666 1.5666c0 0.86184-0.70471 1.5666-1.5666 1.5666zm0-0.56445c0.55679 0 1.0021-0.44532 1.0021-1.0021s-0.44532-1.0021-1.0021-1.0021-1.0021 0.44532-1.0021 1.0021c0 0.55679 0.44532 1.0021 1.0021 1.0021z" color="#000000" color-rendering="auto" image-rendering="auto" solid-color="#000000" style="isolation:auto;mix-blend-mode:normal;text-decoration-color:#000000;text-decoration-line:none;text-decoration-style:solid;text-indent:0;text-transform:none;white-space:normal"/>
   <path d="m-578.76-242.2c-0.86184 0-1.5666-0.70472-1.5666-1.5666 0-0.86183 0.70472-1.5666 1.5666-1.5666s1.5666 0.70472 1.5666 1.5666c0 0.86184-0.70472 1.5666-1.5666 1.5666zm0-0.56445c0.55679 0 1.0021-0.44532 1.0021-1.0021s-0.44533-1.0021-1.0021-1.0021c-0.55679 0-1.0021 0.44531-1.0021 1.0021s0.44533 1.0021 1.0021 1.0021z" color="#000000" color-rendering="auto" image-rendering="auto" solid-color="#000000" style="isolation:auto;mix-blend-mode:normal;text-decoration-color:#000000;text-decoration-line:none;text-decoration-style:solid;text-indent:0;text-transform:none;white-space:normal"/>
   <path d="m-575.91-254.77v-0.56445h39.462v0.56445z" color="#000000" color-rendering="auto" image-rendering="auto" solid-color="#000000" style="isolation:auto;mix-blend-mode:normal;text-decoration-color:#000000;text-decoration-line:none;text-decoration-style:solid;text-indent:0;text-transform:none;white-space:normal"/>
   <path d="m-533.6-253.48c-0.86184 0-1.5666-0.70472-1.5666-1.5666 0-0.86184 0.70472-1.5666 1.5666-1.5666s1.5666 0.70472 1.5666 1.5666c0 0.86183-0.70471 1.5666-1.5666 1.5666zm0-0.56445c0.55679 0 1.0021-0.44531 1.0021-1.0021 0-0.5568-0.44532-1.0021-1.0021-1.0021s-1.0021 0.44531-1.0021 1.0021c0 0.55678 0.44532 1.0021 1.0021 1.0021z" color="#000000" color-rendering="auto" image-rendering="auto" solid-color="#000000" style="isolation:auto;mix-blend-mode:normal;text-decoration-color:#000000;text-decoration-line:none;text-decoration-style:solid;text-indent:0;text-transform:none;white-space:normal"/>
   <path d="m-578.76-253.48c-0.86184 0-1.5666-0.70472-1.5666-1.5666 0-0.86184 0.70472-1.5666 1.5666-1.5666s1.5666 0.70472 1.5666 1.5666c0 0.86183-0.70472 1.5666-1.5666 1.5666zm0-0.56445c0.55679 0 1.0021-0.44531 1.0021-1.0021 0-0.5568-0.44533-1.0021-1.0021-1.0021-0.55679 0-1.0021 0.44531-1.0021 1.0021 0 0.55678 0.44533 1.0021 1.0021 1.0021z" color="#000000" color-rendering="auto" image-rendering="auto" solid-color="#000000" style="isolation:auto;mix-blend-mode:normal;text-decoration-color:#000000;text-decoration-line:none;text-decoration-style:solid;text-indent:0;text-transform:none;white-space:normal"/>
   <path d="m-595.86-96.826v98.89h0.56445v-98.89z" color="#000000" color-rendering="auto" image-rendering="auto" solid-color="#000000" style="isolation:auto;mix-blend-mode:normal;text-decoration-color:#000000;text-decoration-line:none;text-decoration-style:solid;text-indent:0;text-transform:none;white-space:normal"/>
   <path d="m-595.58 3.3478c-0.86184 0-1.5666 0.70472-1.5666 1.5666 0 0.86184 0.70472 1.5666 1.5666 1.5666 0.86184 0 1.5666-0.70472 1.5666-1.5666 0-0.86183-0.70472-1.5666-1.5666-1.5666zm0 0.56445c0.55679 0 1.0021 0.44532 1.0021 1.0021 0 0.5568-0.44532 1.0021-1.0021 1.0021s-1.0021-0.44531-1.0021-1.0021c0-0.55678 0.44532-1.0021 1.0021-1.0021z" color="#000000" color-rendering="auto" image-rendering="auto" solid-color="#000000" style="isolation:auto;mix-blend-mode:normal;text-decoration-color:#000000;text-decoration-line:none;text-decoration-style:solid;text-indent:0;text-transform:none;white-space:normal"/>
   <path d="m-590.22-22.838v51.309h0.56444v-50.745h38.019v-0.56444z" color="#000000" color-rendering="auto" image-rendering="auto" solid-color="#000000" style="isolation:auto;mix-blend-mode:normal;text-decoration-color:#000000;text-decoration-line:none;text-decoration-style:solid;text-indent:0;text-transform:none;white-space:normal"/>
   <path d="m-548.78-24.123c-0.86184 0-1.5666 0.70471-1.5666 1.5666s0.70472 1.5666 1.5666 1.5666c0.86183 0 1.5666-0.70471 1.5666-1.5666s-0.70472-1.5666-1.5666-1.5666zm0 0.56444c0.55679 0 1.0021 0.44532 1.0021 1.0021s-0.44531 1.0021-1.0021 1.0021-1.0021-0.44532-1.0021-1.0021 0.44532-1.0021 1.0021-1.0021z" color="#000000" color-rendering="auto" image-rendering="auto" solid-color="#000000" style="isolation:auto;mix-blend-mode:normal;text-decoration-color:#000000;text-decoration-line:none;text-decoration-style:solid;text-indent:0;text-transform:none;white-space:normal"/>
   <path d="m-575.91-2.3248v0.56445h168.48v-0.56445z" color="#000000" color-rendering="auto" image-rendering="auto" solid-color="#000000" style="isolation:auto;mix-blend-mode:normal;text-decoration-color:#000000;text-decoration-line:none;text-decoration-style:solid;text-indent:0;text-transform:none;white-space:normal"/>
   <path d="m-404.57-3.6091c-0.86184 0-1.5666 0.70472-1.5666 1.5666-1e-5 0.86184 0.70471 1.5666 1.5666 1.5666s1.5666-0.70471 1.5666-1.5666c0-0.86184-0.70471-1.5666-1.5666-1.5666zm0 0.56445c0.55679 0 1.0021 0.44532 1.0021 1.0021s-0.44532 1.0021-1.0021 1.0021-1.0021-0.44533-1.0021-1.0021c0-0.55679 0.44532-1.0021 1.0021-1.0021z" color="#000000" color-rendering="auto" image-rendering="auto" solid-color="#000000" style="isolation:auto;mix-blend-mode:normal;text-decoration-color:#000000;text-decoration-line:none;text-decoration-style:solid;text-indent:0;text-transform:none;white-space:normal"/>
   <path d="m-578.76-3.6091c-0.86184 0-1.5666 0.70472-1.5666 1.5666s0.70472 1.5666 1.5666 1.5666 1.5666-0.70471 1.5666-1.5666-0.70472-1.5666-1.5666-1.5666zm0 0.56445c0.55679 0 1.0021 0.44532 1.0021 1.0021s-0.44533 1.0021-1.0021 1.0021c-0.55679 0-1.0021-0.44532-1.0021-1.0021s0.44533-1.0021 1.0021-1.0021z" color="#000000" color-rendering="auto" image-rendering="auto" solid-color="#000000" style="isolation:auto;mix-blend-mode:normal;text-decoration-color:#000000;text-decoration-line:none;text-decoration-style:solid;text-indent:0;text-transform:none;white-space:normal"/>
   <path d="m-500.9 5.202v42.051h0.56444v-41.487h104.2v-0.56444z" color="#000000" color-rendering="auto" image-rendering="auto" solid-color="#000000" style="isolation:auto;mix-blend-mode:normal;text-decoration-color:#000000;text-decoration-line:none;text-decoration-style:solid;text-indent:0;text-transform:none;white-space:normal"/>
   <path d="m-393.29 3.9177c-0.86184 0-1.5666 0.70472-1.5666 1.5666-1e-5 0.86184 0.70471 1.5666 1.5666 1.5666s1.5666-0.70471 1.5666-1.5666c0-0.86184-0.70471-1.5666-1.5666-1.5666zm0 0.56444c0.55679 0 1.0021 0.44532 1.0021 1.0021s-0.44532 1.0021-1.0021 1.0021-1.0021-0.44532-1.0021-1.0021 0.44532-1.0021 1.0021-1.0021z" color="#000000" color-rendering="auto" image-rendering="auto" solid-color="#000000" style="isolation:auto;mix-blend-mode:normal;text-decoration-color:#000000;text-decoration-line:none;text-decoration-style:solid;text-indent:0;text-transform:none;white-space:normal"/>
   <path d="m-491.53 15.886v42.051h0.56444v-41.487h186.87v-0.56445z" color="#000000" color-rendering="auto" image-rendering="auto" solid-color="#000000" style="isolation:auto;mix-blend-mode:normal;text-decoration-color:#000000;text-decoration-line:none;text-decoration-style:solid;text-indent:0;text-transform:none;white-space:normal"/>
   <path d="m-543.68-45.699-0.39908 0.39908 33.723 33.723h130.51v-0.56445h-130.27z" color="#000000" color-rendering="auto" image-rendering="auto" solid-color="#000000" style="isolation:auto;mix-blend-mode:normal;text-decoration-color:#000000;text-decoration-line:none;text-decoration-style:solid;text-indent:0;text-transform:none;white-space:normal"/>
   <path d="m-545.9-49.081c-0.40174 0-0.80307 0.15263-1.1079 0.45751-0.60976 0.60975-0.60976 1.6067 0 2.2164 0.60975 0.60976 1.6067 0.60976 2.2164 0 0.60976-0.60975 0.60976-1.6067 0-2.2164-0.30488-0.30488-0.70676-0.45751-1.1085-0.45751zm0 0.56114c0.25609 0 0.51238 0.0984 0.70941 0.29545 0.39406 0.39405 0.39406 1.0242 0 1.4183-0.39406 0.39405-1.0242 0.39405-1.4183 0-0.39405-0.39406-0.39405-1.0242 0-1.4183 0.19703-0.19703 0.45277-0.29545 0.70887-0.29545z" color="#000000" color-rendering="auto" image-rendering="auto" solid-color="#000000" style="isolation:auto;mix-blend-mode:normal;text-decoration-color:#000000;text-decoration-line:none;text-decoration-style:solid;text-indent:0;text-transform:none;white-space:normal"/>
   <path d="m-609.55-117.26v157.96h0.56444v-157.96z" color="#000000" color-rendering="auto" image-rendering="auto" solid-color="#000000" style="isolation:auto;mix-blend-mode:normal;text-decoration-color:#000000;text-decoration-line:none;text-decoration-style:solid;text-indent:0;text-transform:none;white-space:normal"/>
   <path d="m-377-13.425c-0.86183 0-1.5666 0.70472-1.5666 1.5666 0 0.86183 0.70472 1.5666 1.5666 1.5666 0.86184 0 1.5666-0.70472 1.5666-1.5666 0-0.86184-0.70472-1.5666-1.5666-1.5666zm0 0.56445c0.55679 0 1.0021 0.44532 1.0021 1.0021s-0.44531 1.0021-1.0021 1.0021c-0.55678 0-1.0021-0.44531-1.0021-1.0021s0.44533-1.0021 1.0021-1.0021z" color="#000000" color-rendering="auto" image-rendering="auto" solid-color="#000000" style="isolation:auto;mix-blend-mode:normal;text-decoration-color:#000000;text-decoration-line:none;text-decoration-style:solid;text-indent:0;text-transform:none;white-space:normal"/>
   <path d="m-584.28-59.18v0.56445h40.276l33.641 33.64h206.26v-0.56444h-206.03l-33.64-33.64z" color="#000000" color-rendering="auto" image-rendering="auto" solid-color="#000000" style="isolation:auto;mix-blend-mode:normal;text-decoration-color:#000000;text-decoration-line:none;text-decoration-style:solid;text-indent:0;text-transform:none;white-space:normal"/>
   <path d="m-587.13-60.465c-0.86184 0-1.5666 0.70472-1.5666 1.5666 0 0.86183 0.70471 1.5666 1.5666 1.5666s1.5666-0.70472 1.5666-1.5666c0-0.86184-0.70472-1.5666-1.5666-1.5666zm0 0.56445c0.55679 0 1.0021 0.44532 1.0021 1.0021s-0.44532 1.0021-1.0021 1.0021-1.0021-0.44533-1.0021-1.0021c0-0.5568 0.44532-1.0021 1.0021-1.0021z" color="#000000" color-rendering="auto" image-rendering="auto" solid-color="#000000" style="isolation:auto;mix-blend-mode:normal;text-decoration-color:#000000;text-decoration-line:none;text-decoration-style:solid;text-indent:0;text-transform:none;white-space:normal"/>
   <path d="m-575.91 8.9641v0.56445h62.04v-0.56445z" color="#000000" color-rendering="auto" image-rendering="auto" solid-color="#000000" style="isolation:auto;mix-blend-mode:normal;text-decoration-color:#000000;text-decoration-line:none;text-decoration-style:solid;text-indent:0;text-transform:none;white-space:normal"/>
   <path d="m-511.02 7.6798c-0.86184 0-1.5666 0.70472-1.5666 1.5666 0 0.86183 0.70472 1.5666 1.5666 1.5666s1.5666-0.70472 1.5666-1.5666c0-0.86184-0.70471-1.5666-1.5666-1.5666zm0 0.56445c0.55679 0 1.0021 0.44532 1.0021 1.0021s-0.44532 1.0021-1.0021 1.0021-1.0021-0.44532-1.0021-1.0021c0-0.55679 0.44532-1.0021 1.0021-1.0021z" color="#000000" color-rendering="auto" image-rendering="auto" solid-color="#000000" style="isolation:auto;mix-blend-mode:normal;text-decoration-color:#000000;text-decoration-line:none;text-decoration-style:solid;text-indent:0;text-transform:none;white-space:normal"/>
   <path d="m-578.76 7.6798c-0.86184 0-1.5666 0.70472-1.5666 1.5666 0 0.86183 0.70472 1.5666 1.5666 1.5666s1.5666-0.70472 1.5666-1.5666c0-0.86184-0.70472-1.5666-1.5666-1.5666zm0 0.56445c0.55679 0 1.0021 0.44532 1.0021 1.0021s-0.44533 1.0021-1.0021 1.0021c-0.55679 0-1.0021-0.44531-1.0021-1.0021s0.44533-1.0021 1.0021-1.0021z" color="#000000" color-rendering="auto" image-rendering="auto" solid-color="#000000" style="isolation:auto;mix-blend-mode:normal;text-decoration-color:#000000;text-decoration-line:none;text-decoration-style:solid;text-indent:0;text-transform:none;white-space:normal"/>
   <path d="m-575.91 20.253v0.56445h39.462v-0.56445z" color="#000000" color-rendering="auto" image-rendering="auto" solid-color="#000000" style="isolation:auto;mix-blend-mode:normal;text-decoration-color:#000000;text-decoration-line:none;text-decoration-style:solid;text-indent:0;text-transform:none;white-space:normal"/>
   <path d="m-533.6 18.969c-0.86184 0-1.5666 0.70472-1.5666 1.5666 0 0.86184 0.70472 1.5666 1.5666 1.5666s1.5666-0.70472 1.5666-1.5666c0-0.86183-0.70471-1.5666-1.5666-1.5666zm0 0.56445c0.55679 0 1.0021 0.44531 1.0021 1.0021 0 0.5568-0.44532 1.0021-1.0021 1.0021s-1.0021-0.44531-1.0021-1.0021c0-0.55678 0.44532-1.0021 1.0021-1.0021z" color="#000000" color-rendering="auto" image-rendering="auto" solid-color="#000000" style="isolation:auto;mix-blend-mode:normal;text-decoration-color:#000000;text-decoration-line:none;text-decoration-style:solid;text-indent:0;text-transform:none;white-space:normal"/>
   <path d="m-578.76 18.969c-0.86184 0-1.5666 0.70472-1.5666 1.5666 0 0.86184 0.70472 1.5666 1.5666 1.5666s1.5666-0.70472 1.5666-1.5666c0-0.86183-0.70472-1.5666-1.5666-1.5666zm0 0.56445c0.55679 0 1.0021 0.44531 1.0021 1.0021 0 0.5568-0.44533 1.0021-1.0021 1.0021-0.55679 0-1.0021-0.44531-1.0021-1.0021 0-0.55678 0.44533-1.0021 1.0021-1.0021z" color="#000000" color-rendering="auto" image-rendering="auto" solid-color="#000000" style="isolation:auto;mix-blend-mode:normal;text-decoration-color:#000000;text-decoration-line:none;text-decoration-style:solid;text-indent:0;text-transform:none;white-space:normal"/>
   <path d="m-595.86 1.1892v-98.89h0.56445v98.89z" color="#000000" color-rendering="auto" image-rendering="auto" solid-color="#000000" style="isolation:auto;mix-blend-mode:normal;text-decoration-color:#000000;text-decoration-line:none;text-decoration-style:solid;text-indent:0;text-transform:none;white-space:normal"/>
   <path d="m-595.58-98.985c-0.86184 0-1.5666-0.70472-1.5666-1.5666 0-0.86184 0.70472-1.5666 1.5666-1.5666 0.86184 0 1.5666 0.70473 1.5666 1.5666 0 0.86184-0.70472 1.5666-1.5666 1.5666zm0-0.56445c0.55679 0 1.0021-0.44532 1.0021-1.0021 0-0.5568-0.44532-1.0021-1.0021-1.0021s-1.0021 0.44531-1.0021 1.0021c0 0.55678 0.44532 1.0021 1.0021 1.0021z" color="#000000" color-rendering="auto" image-rendering="auto" solid-color="#000000" style="isolation:auto;mix-blend-mode:normal;text-decoration-color:#000000;text-decoration-line:none;text-decoration-style:solid;text-indent:0;text-transform:none;white-space:normal"/>
   <path d="m-595.86-235.71v98.89h0.56445v-98.89z" color="#000000" color-rendering="auto" image-rendering="auto" solid-color="#000000" style="isolation:auto;mix-blend-mode:normal;text-decoration-color:#000000;text-decoration-line:none;text-decoration-style:solid;text-indent:0;text-transform:none;white-space:normal"/>
   <path d="m-595.58-135.53c-0.86184 0-1.5666 0.70472-1.5666 1.5666 0 0.86184 0.70472 1.5666 1.5666 1.5666 0.86184 0 1.5666-0.70472 1.5666-1.5666 0-0.86183-0.70472-1.5666-1.5666-1.5666zm0 0.56445c0.55679 0 1.0021 0.44532 1.0021 1.0021 0 0.5568-0.44532 1.0021-1.0021 1.0021s-1.0021-0.44531-1.0021-1.0021c0-0.55678 0.44532-1.0021 1.0021-1.0021z" color="#000000" color-rendering="auto" image-rendering="auto" solid-color="#000000" style="isolation:auto;mix-blend-mode:normal;text-decoration-color:#000000;text-decoration-line:none;text-decoration-style:solid;text-indent:0;text-transform:none;white-space:normal"/>
   <path d="m-125.22-137.69v-98.89h-0.56445v98.89z" color="#000000" color-rendering="auto" image-rendering="auto" solid-color="#000000" style="isolation:auto;mix-blend-mode:normal;text-decoration-color:#000000;text-decoration-line:none;text-decoration-style:solid;text-indent:0;text-transform:none;white-space:normal"/>
   <path d="m-125.5-237.86c0.86184 0 1.5666-0.70472 1.5666-1.5666 0-0.86184-0.70472-1.5666-1.5666-1.5666-0.86184 0-1.5666 0.70472-1.5666 1.5666 0 0.86183 0.70472 1.5666 1.5666 1.5666zm0-0.56445c-0.55679 0-1.0021-0.44532-1.0021-1.0021 0-0.5568 0.44532-1.0021 1.0021-1.0021s1.0021 0.44531 1.0021 1.0021c0 0.55678-0.44532 1.0021-1.0021 1.0021z" color="#000000" color-rendering="auto" image-rendering="auto" solid-color="#000000" style="isolation:auto;mix-blend-mode:normal;text-decoration-color:#000000;text-decoration-line:none;text-decoration-style:solid;text-indent:0;text-transform:none;white-space:normal"/>
   <path d="m-125.22 1.1892v-98.89h-0.56445v98.89z" color="#000000" color-rendering="auto" image-rendering="auto" solid-color="#000000" style="isolation:auto;mix-blend-mode:normal;text-decoration-color:#000000;text-decoration-line:none;text-decoration-style:solid;text-indent:0;text-transform:none;white-space:normal"/>
   <path d="m-125.5-98.985c0.86184 0 1.5666-0.70472 1.5666-1.5666 0-0.86184-0.70472-1.5666-1.5666-1.5666-0.86184 0-1.5666 0.70473-1.5666 1.5666 0 0.86184 0.70472 1.5666 1.5666 1.5666zm0-0.56445c-0.55679 0-1.0021-0.44532-1.0021-1.0021 0-0.5568 0.44532-1.0021 1.0021-1.0021s1.0021 0.44531 1.0021 1.0021c0 0.55678-0.44532 1.0021-1.0021 1.0021z" color="#000000" color-rendering="auto" image-rendering="auto" solid-color="#000000" style="isolation:auto;mix-blend-mode:normal;text-decoration-color:#000000;text-decoration-line:none;text-decoration-style:solid;text-indent:0;text-transform:none;white-space:normal"/>
   <path d="m-125.22-96.826v98.89h-0.56445v-98.89z" color="#000000" color-rendering="auto" image-rendering="auto" solid-color="#000000" style="isolation:auto;mix-blend-mode:normal;text-decoration-color:#000000;text-decoration-line:none;text-decoration-style:solid;text-indent:0;text-transform:none;white-space:normal"/>
   <path d="m-125.5 3.3478c0.86184 0 1.5666 0.70472 1.5666 1.5666 0 0.86184-0.70472 1.5666-1.5666 1.5666-0.86184 0-1.5666-0.70472-1.5666-1.5666 0-0.86183 0.70472-1.5666 1.5666-1.5666zm0 0.56445c-0.55679 0-1.0021 0.44532-1.0021 1.0021 0 0.5568 0.44532 1.0021 1.0021 1.0021s1.0021-0.44531 1.0021-1.0021c0-0.55678-0.44532-1.0021-1.0021-1.0021z" color="#000000" color-rendering="auto" image-rendering="auto" solid-color="#000000" style="isolation:auto;mix-blend-mode:normal;text-decoration-color:#000000;text-decoration-line:none;text-decoration-style:solid;text-indent:0;text-transform:none;white-space:normal"/>
   <path d="m-125.22-235.71v98.89h-0.56445v-98.89z" color="#000000" color-rendering="auto" image-rendering="auto" solid-color="#000000" style="isolation:auto;mix-blend-mode:normal;text-decoration-color:#000000;text-decoration-line:none;text-decoration-style:solid;text-indent:0;text-transform:none;white-space:normal"/>
   <path d="m-125.5-135.53c0.86184 0 1.5666 0.70472 1.5666 1.5666 0 0.86184-0.70472 1.5666-1.5666 1.5666-0.86184 0-1.5666-0.70472-1.5666-1.5666 0-0.86183 0.70472-1.5666 1.5666-1.5666zm0 0.56444c-0.55679 0-1.0021 0.44533-1.0021 1.0021 0 0.55679 0.44532 1.0021 1.0021 1.0021s1.0021-0.44531 1.0021-1.0021c0-0.55678-0.44532-1.0021-1.0021-1.0021z" color="#000000" color-rendering="auto" image-rendering="auto" solid-color="#000000" style="isolation:auto;mix-blend-mode:normal;text-decoration-color:#000000;text-decoration-line:none;text-decoration-style:solid;text-indent:0;text-transform:none;white-space:normal"/>
  </g>
 </g>
</svg>
