<?xml version="1.0" encoding="UTF-8"?>
<svg width="384" height="384" version="1.1" viewBox="0 0 384 384" xmlns="http://www.w3.org/2000/svg" xmlns:cc="http://creativecommons.org/ns#" xmlns:dc="http://purl.org/dc/elements/1.1/" xmlns:rdf="http://www.w3.org/1999/02/22-rdf-syntax-ns#">
 <metadata>
  <rdf:RDF>
   <cc:Work rdf:about="">
    <dc:format>image/svg+xml</dc:format>
    <dc:type rdf:resource="http://purl.org/dc/dcmitype/StillImage"/>
    <dc:title/>
   </cc:Work>
  </rdf:RDF>
 </metadata>
 <!-- Font Awesome Free 5.15.4 by @fontawesome - https://fontawesome.com License - https://fontawesome.com/license/free (Icons: CC BY 4.0, Fonts: SIL OFL 1.1, Code: MIT License) -->
 <path d="m380.8 81.824c-1.68-6.7725-10.155-9.0675-15.09-4.1325l-55.77 55.77-50.91-8.4825-8.4825-50.91 55.77-55.77c4.965-4.965 2.5725-13.425-4.245-15.12-35.535-8.805-74.662 0.68249-102.43 28.447-29.73 29.73-37.912 72.825-25.537 110.4l-160.04 160.04c-18.742 18.742-18.742 49.132 0 67.875 18.742 18.742 49.132 18.742 67.875 0l159.91-159.91c37.59 12.532 80.602 4.26 110.53-25.665 27.802-27.802 37.275-66.99 28.432-102.55zm-332.8 272.17c-9.9375 0-18-8.0625-18-18 0-9.945 8.0625-18 18-18 9.9375 0 18 8.055 18 18 0 9.9375-8.0625 18-18 18z" fill="#f8f8ff"/>
</svg>
