<?xml version="1.0" encoding="UTF-8"?>
<svg width="161.03" height="157.06" version="1.1" viewBox="0 0 161.03 157.06" xml:space="preserve" xmlns="http://www.w3.org/2000/svg" xmlns:cc="http://creativecommons.org/ns#" xmlns:dc="http://purl.org/dc/elements/1.1/" xmlns:rdf="http://www.w3.org/1999/02/22-rdf-syntax-ns#"><metadata><rdf:RDF><cc:Work rdf:about=""><dc:format>image/svg+xml</dc:format><dc:type rdf:resource="http://purl.org/dc/dcmitype/StillImage"/><dc:title/></cc:Work></rdf:RDF></metadata><g transform="matrix(1.3333 0 0 -1.3333 459.63 218.24)"><g transform="translate(-634.94 -53.874)" fill="#f8f8f8"><path d="m350.61 217.55c-33.347 0-60.388-27.035-60.388-60.387 0-26.681 17.303-49.317 41.297-57.302 3.018-0.5589 4.126 1.3102 4.126 2.9052 0 1.44-0.056 6.197-0.082 11.243-16.8-3.653-20.345 7.125-20.345 7.125-2.747 6.98-6.705 8.836-6.705 8.836-5.479 3.748 0.413 3.671 0.413 3.671 6.064-0.425 9.257-6.223 9.257-6.223 5.386-9.232 14.127-6.563 17.573-5.02 0.542 3.902 2.107 6.568 3.834 8.075-13.413 1.527-27.513 6.705-27.513 29.844 0 6.593 2.359 11.98 6.222 16.209-0.627 1.522-2.694 7.663 0.585 15.981 0 0 5.071 1.623 16.611-6.19 4.817 1.338 9.983 2.009 15.115 2.032 5.132-0.023 10.302-0.694 15.128-2.032 11.526 7.813 16.59 6.19 16.59 6.19 3.287-8.318 1.219-14.459 0.592-15.981 3.872-4.229 6.215-9.616 6.215-16.209 0-23.194-14.127-28.301-27.574-29.796 2.166-1.874 4.096-5.549 4.096-11.183 0-8.079-0.07-14.582-0.07-16.572 0-1.607 1.087-3.4899 4.148-2.897 23.981 7.994 41.262 30.622 41.262 57.294 0 33.352-27.037 60.387-60.387 60.387" fill-rule="evenodd"/><g><path d="m313.09 130.85c-0.133-0.301-0.605-0.39-1.035-0.184-0.438 0.197-0.684 0.606-0.542 0.907 0.13 0.309 0.603 0.394 1.04 0.189 0.439-0.198 0.689-0.611 0.537-0.912"/><path d="m315.54 128.12c-0.288-0.267-0.851-0.143-1.233 0.279-0.395 0.421-0.469 0.984-0.177 1.255 0.297 0.267 0.843 0.142 1.239-0.279 0.395-0.426 0.472-0.985 0.171-1.255"/><path d="m317.92 124.64c-0.37-0.257-0.975-0.016-1.349 0.521-0.37 0.537-0.37 1.181 8e-3 1.439 0.375 0.258 0.971 0.026 1.35-0.507 0.369-0.545 0.369-1.19-9e-3 -1.453"/><path d="m321.18 121.28c-0.331-0.365-1.036-0.267-1.552 0.231-0.528 0.487-0.675 1.178-0.343 1.543 0.335 0.366 1.044 0.263 1.564-0.231 0.524-0.486 0.684-1.182 0.331-1.543"/><path d="m325.68 119.33c-0.146-0.473-0.825-0.688-1.509-0.487-0.683 0.207-1.13 0.761-0.992 1.239 0.142 0.476 0.824 0.7 1.513 0.485 0.682-0.206 1.13-0.756 0.988-1.237"/><path d="m330.62 118.97c0.017-0.498-0.563-0.911-1.281-0.919-0.722-0.017-1.306 0.386-1.314 0.876 0 0.503 0.567 0.912 1.289 0.924 0.718 0.014 1.306-0.386 1.306-0.881"/><path d="m335.22 119.76c0.086-0.486-0.413-0.985-1.126-1.117-0.701-0.129-1.35 0.171-1.439 0.653-0.087 0.498 0.421 0.997 1.121 1.126 0.714 0.124 1.353-0.168 1.444-0.662"/></g></g></g></svg>
