<?xml version="1.0" encoding="UTF-8"?>
<svg width="256" height="256" fill="none" version="1.1" viewBox="0 0 256 256" xmlns="http://www.w3.org/2000/svg" xmlns:xlink="http://www.w3.org/1999/xlink">
 <g transform="matrix(1.42 0 0 1.42 2381 2909)">
  <g transform="matrix(1 0 0 1 -4.82 7.01)" fill="#83b9f5">
   <path class="st0" d="m-1598-2e3v7.5h10.3v-7.5z"/>
   <path class="st0" d="m-1606-1993v7.5h18.5v-7.5z"/>
   <path class="st0" d="m-1628-1980v7.5h40.1v-7.5z"/>
   <path class="st0" d="m-1650-1968v7.5h62.2v-7.5z"/>
   <path class="st0" d="m-1665-1956v7.5h76.8v-7.5z"/>
   <path class="st0" d="m-1640-1944v7.5h52.5v-7.5z"/>
   <path class="st0" d="m-1619-1932v7.5h31.2v-7.5z"/>
   <path class="st0" d="m-1627-1920v7.5h39.6v-7.5z"/>
   <path class="st0" d="m-1607-1909v7.5h19.1v-7.5z"/>
  </g>
  <g transform="matrix(-3.51 0 0 3.51 1728 -3256)" fill="#f38577">
   <path class="st1" d="m938 350h9.3l-4.6 7.1z"/>
   <path class="st1" d="m942 351v37.2h1.2v-37.2z"/>
  </g>
  <path class="st2" d="m-1568-2007c-1.5 0-2.8 1.2-2.8 2.7v98.7c0 2.2 2.5 3.5 4.3 2.2l68-49.3c1.5-1.1 1.5-3.3 0-4.4l-68-49.3c-0.4-0.4-0.9-0.6-1.5-0.6z" fill="#527eb2"/>
 </g>
</svg>
